<?xml version="1.0" encoding="utf-8"?>
<!-- Generator: Adobe Illustrator 20.0.0, SVG Export Plug-In . SVG Version: 6.00 Build 0)  -->
<svg version="1.1" id="Layer_1" xmlns="http://www.w3.org/2000/svg" xmlns:xlink="http://www.w3.org/1999/xlink" x="0px" y="0px"
	 viewBox="0 0 406 406" style="enable-background:new 0 0 406 406;" xml:space="preserve">
<style type="text/css">
	.st0{fill:#F1F2F2;}
	.st1{enable-background:new    ;}
	.st2{fill:#939598;}
	.st3{fill:#CFD1D2;}
	.st4{fill:#313235;}
	.st5{fill:#BCBDBD;}
	.st6{fill:#EE2B2A;}
	.st7{fill:#EB5059;}
	.st8{fill:#CD2528;}
	.st9{fill:#AAACAE;}
	.st10{fill:#FFFFFF;}
	.st11{fill:#313436;}
	.st12{fill:#E2E3E2;}
	.st13{clip-path:url(#SVGID_2_);}
</style>
<g>
	<circle class="st0" cx="203" cy="203" r="203"/>
</g>
<g>
	<g class="st1">
		<path class="st2" d="M173.1,353.6h-9.9v-4h15.1v3.5l-9.4,17.5h-5.2L173.1,353.6z"/>
		<path class="st2" d="M180.8,360.1L180.8,360.1c0-6.1,3.8-10.9,9.4-10.9c5.5,0,9.3,4.7,9.3,10.8v0.1c0,6.1-3.8,10.9-9.4,10.9
			S180.8,366.2,180.8,360.1z M194.7,360.1L194.7,360.1c0-3.9-1.9-6.8-4.6-6.8c-2.8,0-4.6,2.8-4.6,6.6v0.1c0,3.8,1.8,6.7,4.6,6.7
			S194.7,363.9,194.7,360.1z"/>
		<path class="st2" d="M202.7,360.1L202.7,360.1c0-6.1,3.8-10.9,9.4-10.9c5.5,0,9.3,4.7,9.3,10.8v0.1c0,6.1-3.8,10.9-9.4,10.9
			C206.4,370.9,202.7,366.2,202.7,360.1z M216.6,360.1L216.6,360.1c0-3.9-1.9-6.8-4.6-6.8s-4.6,2.8-4.6,6.6v0.1
			c0,3.8,1.8,6.7,4.6,6.7S216.6,363.9,216.6,360.1z"/>
		<path class="st2" d="M224.6,360.1L224.6,360.1c0-6.1,3.8-10.9,9.4-10.9c5.5,0,9.3,4.7,9.3,10.8v0.1c0,6.1-3.8,10.9-9.4,10.9
			S224.6,366.2,224.6,360.1z M238.5,360.1L238.5,360.1c0-3.9-1.9-6.8-4.6-6.8s-4.6,2.8-4.6,6.6v0.1c0,3.8,1.8,6.7,4.6,6.7
			C236.8,366.8,238.5,363.9,238.5,360.1z"/>
	</g>
</g>
<g>
	<rect x="135.3" y="126.6" class="st3" width="91.3" height="137"/>
</g>
<g>
	<rect x="227.2" y="88.1" class="st3" width="43.5" height="175.5"/>
</g>
<g>
	<polygon class="st4" points="270.1,83.8 135.9,83.8 135.3,88.1 270.7,88.1 	"/>
</g>
<g>
	<rect x="135.3" y="88.1" class="st3" width="91.3" height="37.8"/>
</g>
<g>
	<path class="st5" d="M196.8,98.5c0,0-1.3,0.5-2.9,2.2c-1.6,1.7-2.4,3.6-1.8,4.1c0.3,0.2,0.8,0.2,1.9-0.7c0.8-0.8,1.7-1.7,2.3-3.1
		C197.1,99.2,196.8,98.5,196.8,98.5 M205.3,101.5c-1.7-0.9-3-2-4.3-2.6c-1.2-0.6-2.1-0.9-3.1-0.8c-0.2,0-0.4,0.1-0.4,0.1
		s0.5,1.8-1.5,4.8c-2.1,3-4,3-4.5,2.2c-0.6-0.9,0.2-2.7,1.4-4.3c1.3-1.7,3.5-3,3.5-3s-0.7-0.4-2.5,0.6c-1.7,1-4.7,3.3-7.4,7.2
		c-2.7,3.9-3.3,6-3.7,7.7s0,3.5,1.8,3.5c1.9,0,4-2.9,4.7-3.8c1.1-1.8,1.9-4.7,0.3-4.3c-0.8,0.2-1.4,1-1.8,1.9
		c-0.4,0.8-0.6,1.6-0.6,1.6s-0.6,0.2-1.5,0.9c-0.9,0.7-1.4,1.3-1.4,1.3s0-1.3,1.1-3.5s3-3.2,4.2-3.3c1-0.1,2.3,0.8,1.2,3.9
		c-1.1,3.2-4.4,7-7.8,7c-3.2,0-5.3-4-0.8-11.1c4.9-7.8,10.6-10.2,12.5-10.5s2.5,0.6,2.5,0.6s1.6-0.7,3.5-0.6c2.3,0.2,4,1.8,6.4,2.9
		C206.4,100.3,205.8,100.9,205.3,101.5 M215.5,98.9c-1.6,1-3.8,1.9-5.8,1.7c-0.5,0.6-1.1,1.2-1.7,1.9c3.6,0.7,6.8-1.5,8.5-3.5
		c1.1-1.2,1.6-2.3,1.6-2.3S217.1,97.9,215.5,98.9 M210.7,109.1c0-0.1,0.1-0.2,0.1-0.2s0-0.3-0.3-0.3s-0.8,0-2.1,1.4
		c-1.2,1.4-2,2.5-2.6,3.7c-0.7,1.3-1,2.3-0.6,2.5c0.1,0.1,0.3,0.1,0.4,0c0.3-0.1,0.6-0.3,1.1-0.9c0.2-0.3,0.5-0.6,0.8-1
		C208.2,113.3,210.3,109.8,210.7,109.1 M197.8,110.6c0.2-0.5,0.5-1.6-0.1-2s-2.1,0.6-2.1,1.7s1.1,1.6,1.3,1.7c0.1,0,0.2,0,0.3-0.1
		C197.3,111.8,197.6,111.2,197.8,110.6 M196.7,112.6c0,0-0.5-0.2-1-0.7c-0.5-0.4-0.8-0.9-0.8-0.9s0,0-0.1,0c0,0-0.1,0.1-0.9,1.3
		c-0.8,1.2-2,3.6-0.9,4c0.7,0.3,1.9-1,2.5-1.8S196.7,112.8,196.7,112.6C196.8,112.6,196.7,112.6,196.7,112.6 M209.3,115.4
		c-0.3,0.5-0.6,1.4,0.4,0.8c1.2-0.7,2.9-3.3,2.9-3.3h0.8c0,0-1,1.6-2.4,3.1c-1.2,1.4-2.7,2.6-3.8,2.5c-1.2-0.1-0.8-1.8-0.8-1.8
		s-1.8,1.9-3,1.7c-1.6-0.2-1.1-2.2-1.1-2.2s-1.9,2.3-3.1,2.2c-2-0.1-1.5-2.5-0.9-4.2c0.3-0.9,0.6-1.6,0.6-1.6s-0.2,0-0.6,0.1
		c-0.2,0-0.6,0.1-0.6,0.1s-0.8,1.5-1.5,2.3c-0.7,0.9-3.5,3.9-5.1,3.3c-1.5-0.6-1-2.9-0.1-4.8c1.3-2.7,5-6.6,7.1-6.1
		c2.2,0.5,0.1,4.5,0.1,4.5l0,0c0,0,0.2,0,0.4,0c0.4-0.1,0.8-0.2,0.8-0.2s2.2-4.6,4.6-7.6c2.4-3,7.3-8.2,9.2-7
		c0.5,0.3,0.3,1.4-0.4,2.7c-0.3,0.1-0.6,0.2-0.9,0.2c0.4-0.8,0.7-1.4,0.8-1.9c0.3-1.6-3.4,1.7-6,5.3c-2.6,3.5-4.2,6.7-4.2,6.7
		s0.5-0.3,1.3-1c0.9-0.7,2-1.8,3.3-3.1c0.9-0.9,1.9-2,2.8-3.2c0.3,0,0.6,0,0.8-0.1c-1.1,1.4-2.2,2.7-3.1,3.7c-1,1.1-2.2,2.2-3.1,3
		c-1.6,1.3-2.8,2-2.8,2s-2.3,4.6-1,4.9c0.7,0.2,2.2-2,2.2-2s1.9-2.9,3-4.1c1.5-1.8,2.9-2.8,4.2-2.8c0.8,0,1.2,0.8,1.2,0.8l0.4-0.6
		h2.2C213.8,107.8,209.6,114.9,209.3,115.4 M215.5,98.9c-1.6,1-3.8,1.9-5.8,1.7c-0.5,0.6-1.1,1.2-1.7,1.9c3.6,0.7,6.8-1.5,8.5-3.5
		c1.1-1.2,1.6-2.3,1.6-2.3S217.1,97.9,215.5,98.9 M184.1,102.4H182l-1.2,1.9h2.1L184.1,102.4z M174,109.1c0.9-1.2,3.4-5.6,3.4-5.6
		s0-0.3-0.3-0.3s-0.9,0.1-2.1,1.5c-1.1,1.4-2,2.6-2.7,3.8c-0.7,1.3-1,2.2-0.6,2.5c0.1,0.1,0.3,0.1,0.4,0c0.3-0.1,0.6-0.3,1.1-0.9
		C173.5,109.9,173.7,109.5,174,109.1 M162.6,103.2c-0.6-0.4-2.1,0.6-2.1,1.7s1.4,1.4,1.5,1.4c0,0,0.2,0,0.2-0.1s0.2-0.4,0.4-1
		C162.9,104.7,163.1,103.7,162.6,103.2 M161.7,107c0,0-0.6-0.2-1.2-0.5c-0.6-0.4-0.8-0.9-0.8-0.9s0,0-0.1,0c0,0-0.1,0.2-0.9,1.4
		c-0.8,1.2-2,3.6-0.9,4c0.7,0.3,1.9-1,2.6-1.8C161,108.3,161.7,107.2,161.7,107C161.8,107,161.7,107,161.7,107 M179.1,107.7h0.8
		c0,0-3.9,5.7-6.1,5.4c-1.2-0.1-0.9-1.7-0.9-1.7s-1.7,2-3.3,1.6c-1.4-0.4-0.5-2.8-0.5-2.8c-0.2,0.1-3.3,3.6-5.5,2.7
		c-2.3-0.9-1.1-3.8-0.7-4.7c0.4-0.7,0.8-1.5,0.8-1.5s-0.4,0.1-0.6,0.2c-0.2,0.1-0.6,0.1-0.6,0.1s-1.1,1.8-1.7,2.6
		c-0.7,0.9-3.5,3.9-5.1,3.3c-1.7-0.6-1.3-2.9-0.3-4.8c1.5-3,5.1-6.7,7.3-6.1s0.4,4.1,0.4,4.1s0.4,0.1,1.5-0.7c1.5-1,3.5-3.8,5.6-3.5
		c1,0.2,1.9,1.2,0.7,3.1c-0.4,0.6-1.1,1.2-1.6,0.6c-0.3-0.3,0-1,0.3-1.4c0.5-0.6,1.2-0.5,1.2-0.5s0.4-0.8-0.5-0.8
		c-0.7,0-2.6,1.7-3.6,3.4c-1,1.6-2.4,4.3-0.9,4.8c1.3,0.5,3.9-2.5,5-4.1c1.2-1.6,3.8-5.2,6.1-5.3c0.8-0.1,1.2,0.7,1.2,0.7l0.3-0.4
		h2.2c0,0-4.2,7.1-4.6,7.6c-0.3,0.4-0.6,1.4,0.4,0.8C177.1,110.3,179.1,107.7,179.1,107.7 M177.9,119c-1.7-1.2-3.8-1.7-5.6-1.6
		c-1.9,0.1-2.8,1.5-2.8,1.5c-0.9-1.5-2.6-2.4-5.2-2.4c-4.2,0.1-8.4,2-11.7,2c-3.2,0-5.5-2-5.4-5.6c0.1-6.2,5.4-11.9,9.3-14.4
		c2.3-1.5,4.2-1.9,5.4-1.7c0.9,0.1,2,1.1,1.3,2.7c-1,2.3-2.4,2.1-2.3,1c0-0.7,0.5-1.1,0.8-1.4c0.2-0.2,0.6-0.2,0.8-0.2
		c0.2-0.2,0.3-1.4-1.3-1s-3.6,2-5.4,4.1c-1.9,2.1-4.8,5.9-5.5,10c-0.3,1.9-0.1,5.3,4.4,5.3c3.8,0,9.4-2.5,14.6-2.5
		c2,0,3.7,0.6,5.1,1.4C175.7,117,177.3,118.2,177.9,119"/>
</g>
<g>
	<path class="st5" d="M212.1,118.1c-0.1,0.1-0.3,0.2-0.5,0.2s-0.4-0.1-0.5-0.2c-0.1-0.2-0.2-0.3-0.2-0.5s0.1-0.4,0.2-0.5
		c0.2-0.1,0.3-0.2,0.5-0.2s0.4,0.1,0.5,0.2s0.2,0.3,0.2,0.5C212.3,117.8,212.2,118,212.1,118.1 M212.1,117c-0.2-0.2-0.4-0.3-0.6-0.3
		c-0.2,0-0.5,0.1-0.6,0.3c-0.2,0.2-0.3,0.4-0.3,0.6s0.1,0.5,0.3,0.6c0.2,0.2,0.4,0.3,0.6,0.3c0.2,0,0.5-0.1,0.6-0.3
		c0.2-0.2,0.3-0.4,0.3-0.6C212.4,117.3,212.3,117.1,212.1,117"/>
</g>
<g>
	<path class="st5" d="M211.6,117.6c0,0-0.1,0-0.2,0h-0.2v-0.4h0.1c0.1,0,0.2,0,0.2,0l0.1,0.1C211.7,117.5,211.7,117.5,211.6,117.6
		 M211.9,118L211.9,118L211.9,118c0-0.1,0-0.2-0.1-0.3c0-0.1-0.1-0.1-0.2-0.1c0.1,0,0.1,0,0.1-0.1c0.1,0,0.1-0.1,0.1-0.2
		s0-0.2-0.2-0.2c-0.1,0-0.1,0-0.3,0H211v1h0.2v-0.4h0.1c0.1,0,0.2,0,0.2,0c0.1,0,0.1,0.1,0.1,0.2v0.1l0,0l0,0l0,0L211.9,118
		L211.9,118C211.9,118.1,211.9,118,211.9,118"/>
</g>
<g>
	<path class="st6" d="M158.4,263.6c-3.9,0-4-19.3-4-19.3c0-55.1-9.6-64-9.6-80.1s5.2-30.5,5.2-30.5s2.7-0.6,28.7-0.6s33,0.6,33,0.6
		s5.2,14.4,5.2,30.5s-9.6,25-9.6,80.1c0,0-0.1,19.3-4,19.3"/>
</g>
<g>
	<path class="st7" d="M150.1,133.7c0,0,2.7-0.6,28.7-0.6s33,0.6,33,0.6s0.7,3.3-33,3.3S150.1,134.8,150.1,133.7"/>
</g>
<g>
	<path class="st8" d="M206.1,175.2c0,2.9-2.2,5.3-5,5.3h-40.2c-2.8,0-5-2.4-5-5.3v-21.9c0-2.9,2.2-5.3,5-5.3H201c2.8,0,5,2.4,5,5.3
		v21.9H206.1z"/>
</g>
<g>
	<path class="st5" d="M178.8,202.2h-25.4c0,0-0.5-4.8,0-6.2c0.5-1.3,1.3-3.4,7-3.7c5.8-0.3,18.3-0.2,18.3-0.2s16.9-0.1,22.7,0.2
		s6.6,2.3,7,3.7c0.5,1.3,0,6.2,0,6.2H178.8z"/>
</g>
<g>
	<path class="st3" d="M178.8,202.2h-23.2l1.4,46c0,0-1.1,15.4,8.4,15.4h13.4h17.7c9.6,0,8.5-15.4,8.5-15.4l1.4-46L178.8,202.2
		L178.8,202.2z"/>
</g>
<g>
	<path class="st9" d="M165.4,262.7c-1.9,0-3.3-0.6-4.5-1.9c-3.6-3.9-3.1-12.4-3-12.5l0,0l-1.3-46.4h48.9l-1.3,46.4l0,0
		c0,0.1,0.6,8.6-3.1,12.5c-1.2,1.3-2.7,1.9-4.5,1.9H165.4z"/>
</g>
<g>
	<path class="st10" d="M181,144c0-0.4,0.3-0.6,0.6-0.6c0.4,0,0.6,0.3,0.6,0.6H181z M182.4,144c0-0.5-0.3-0.9-0.9-0.9
		c-0.5,0-0.9,0.4-0.9,1l0,0c0,0.6,0.4,1,0.9,1c0.3,0,0.5-0.1,0.7-0.3v-0.1c0-0.1-0.1-0.1-0.1-0.1H182c-0.1,0.1-0.3,0.2-0.5,0.2
		c-0.3,0-0.6-0.2-0.6-0.6h1.3C182.4,144.2,182.4,144.1,182.4,144 M179.7,143.1c-0.1,0-0.1,0-0.1,0.1l-0.6,1.4l-0.6-1.4
		c0-0.1-0.1-0.1-0.1-0.1c-0.1,0-0.1,0.1-0.1,0.1s0,0,0,0.1l0.8,1.6l0,0c-0.1,0.2-0.2,0.3-0.4,0.3c-0.1,0-0.1,0-0.2,0c0,0,0,0-0.1,0
		s-0.1,0-0.1,0.1s0,0.1,0.1,0.1s0.2,0.1,0.3,0.1c0.3,0,0.5-0.1,0.6-0.5l0.7-1.7c0,0,0,0,0-0.1C179.8,143.2,179.8,143.1,179.7,143.1
		 M169.4,143.2h-0.7v-0.3c0-0.3,0.1-0.4,0.3-0.4c0.1,0,0.2,0,0.2,0c0.1,0,0.1,0,0.1-0.1s0-0.1-0.1-0.1s-0.2-0.1-0.3-0.1
		c-0.2,0-0.3,0.1-0.4,0.1c-0.1,0.1-0.2,0.3-0.2,0.5v0.3H168c-0.1,0-0.1,0.1-0.1,0.1c0,0.1,0,0.1,0.1,0.1h0.3v1.4
		c0,0.1,0.1,0.1,0.1,0.1c0.1,0,0.1-0.1,0.1-0.1v-1.4h0.6c0.1,0,0.1-0.1,0.1-0.1C169.5,143.3,169.5,143.2,169.4,143.2 M173.3,143.9
		c0-0.4,0.3-0.6,0.6-0.6c0.4,0,0.6,0.3,0.6,0.6H173.3z M173.9,143.1c-0.5,0-0.9,0.4-0.9,1l0,0c0,0.6,0.4,1,0.9,1
		c0.3,0,0.5-0.1,0.7-0.3v-0.1c0-0.1-0.1-0.1-0.1-0.1h-0.1c-0.1,0.1-0.3,0.2-0.5,0.2c-0.3,0-0.6-0.2-0.6-0.6h1.3
		c0.1,0,0.1-0.1,0.1-0.1C174.7,143.5,174.4,143.1,173.9,143.1 M180.3,142.4c-0.1,0-0.1,0.1-0.1,0.1v2.4c0,0.1,0.1,0.1,0.1,0.1
		c0.1,0,0.1-0.1,0.1-0.1v-2.4C180.4,142.4,180.3,142.4,180.3,142.4 M170.7,143.1c-0.2,0-0.5,0.2-0.6,0.5v-0.3c0-0.1-0.1-0.1-0.1-0.1
		c-0.1,0-0.1,0.1-0.1,0.1v1.6c0,0.1,0.1,0.1,0.1,0.1c0.1,0,0.1-0.1,0.1-0.1v-0.6c0-0.5,0.3-0.8,0.6-0.8c0.1,0,0.1-0.1,0.1-0.1
		C170.8,143.2,170.8,143.1,170.7,143.1 M177.7,143.4c0.1,0,0.1-0.1,0.1-0.1c0-0.1-0.1-0.1-0.1-0.1h-0.5v-0.4c0-0.1-0.1-0.1-0.1-0.1
		c-0.1,0-0.1,0.1-0.1,0.1v0.4h-0.2c-0.1,0-0.1,0.1-0.1,0.1c0,0.1,0.1,0.1,0.1,0.1h0.2v1.1c0,0.4,0.2,0.5,0.5,0.5c0.1,0,0.2,0,0.3,0
		l0.1-0.1c0-0.1-0.1-0.1-0.1-0.1s-0.1,0-0.2,0c-0.2,0-0.3-0.1-0.3-0.3v-1.1L177.7,143.4L177.7,143.4z M171.2,143.9
		c0-0.4,0.3-0.6,0.6-0.6c0.4,0,0.6,0.3,0.6,0.6H171.2z M171.8,143.1c-0.5,0-0.9,0.4-0.9,1l0,0c0,0.6,0.4,1,0.9,1
		c0.3,0,0.5-0.1,0.7-0.3v-0.1c0-0.1-0.1-0.1-0.1-0.1h-0.1c-0.1,0.1-0.3,0.2-0.5,0.2c-0.3,0-0.6-0.2-0.6-0.6h1.3
		c0.1,0,0.1-0.1,0.1-0.1C172.7,143.5,172.4,143.1,171.8,143.1 M175.9,143.9c-0.2-0.1-0.5-0.1-0.5-0.3l0,0c0-0.2,0.1-0.3,0.4-0.3
		c0.2,0,0.3,0.1,0.5,0.1c0,0,0,0,0.1,0s0.1-0.1,0.1-0.1c0-0.1,0-0.1-0.1-0.1c-0.2-0.1-0.4-0.2-0.6-0.2c-0.4,0-0.6,0.2-0.6,0.5l0,0
		c0,0.3,0.3,0.4,0.6,0.5c0.2,0.1,0.5,0.1,0.5,0.3l0,0c0,0.2-0.2,0.3-0.4,0.3s-0.4-0.1-0.6-0.2c0,0,0,0-0.1,0s-0.1,0.1-0.1,0.1v0.1
		c0.2,0.1,0.5,0.2,0.7,0.2c0.4,0,0.7-0.2,0.7-0.6l0,0C176.5,144.1,176.2,144,175.9,143.9 M167.4,142c-0.3,0.2-0.6,0.3-1,0.3
		c-0.1,0.1-0.2,0.2-0.3,0.3C166.7,142.7,167.2,142.3,167.4,142c0.3-0.2,0.4-0.4,0.4-0.4S167.6,141.8,167.4,142 M166,144.5
		c0,0.1-0.1,0.1-0.1,0.2c-0.1,0.1-0.1,0.1-0.2,0.1c0,0,0,0-0.1,0s0-0.2,0.1-0.4s0.2-0.4,0.4-0.6c0.2-0.2,0.3-0.2,0.3-0.2l0.1,0.1
		l0,0C166.5,143.8,166.2,144.4,166,144.5 M164.4,144.1C164.4,144.1,164.3,144.1,164.4,144.1c-0.1,0-0.3-0.1-0.3-0.3s0.2-0.3,0.3-0.3
		c0.1,0.1,0,0.2,0,0.3C164.4,144,164.4,144.1,164.4,144.1 M164.3,144.3c0,0-0.1,0.2-0.2,0.3c-0.1,0.1-0.3,0.3-0.4,0.3
		c-0.2-0.1,0-0.5,0.1-0.7s0.1-0.2,0.1-0.2l0,0c0,0,0,0.1,0.1,0.2C164.2,144.2,164.3,144.2,164.3,144.3
		C164.3,144.2,164.3,144.2,164.3,144.3 M167.1,143.4h-0.4l-0.1,0.1c0,0-0.1-0.1-0.2-0.1c-0.2,0-0.4,0.2-0.7,0.5
		c-0.2,0.2-0.5,0.7-0.5,0.7s-0.2,0.4-0.4,0.3c-0.2,0,0.2-0.8,0.2-0.8s0.2-0.1,0.4-0.3c0.2-0.1,0.3-0.3,0.5-0.5s0.3-0.4,0.5-0.6h-0.1
		c-0.2,0.2-0.3,0.4-0.5,0.5c-0.2,0.2-0.4,0.4-0.5,0.5s-0.2,0.2-0.2,0.2s0.3-0.5,0.7-1.1s1-1.1,1-0.9c0,0.1-0.1,0.2-0.1,0.3
		c0.1,0,0.1,0,0.1,0c0.1-0.2,0.1-0.4,0.1-0.4c-0.3-0.2-1.1,0.6-1.5,1.1s-0.8,1.2-0.8,1.2h-0.1h-0.1l0,0c0,0,0.4-0.7,0-0.7
		c-0.3-0.1-0.9,0.6-1.2,1c-0.1,0.3-0.2,0.7,0,0.8c0.3,0.1,0.7-0.4,0.8-0.5s0.2-0.4,0.2-0.4h0.1c0.1,0,0.1,0,0.1,0s0,0.1-0.1,0.3
		c-0.1,0.3-0.2,0.7,0.2,0.7c0.2,0,0.5-0.4,0.5-0.4s-0.1,0.3,0.2,0.4c0.2,0,0.5-0.3,0.5-0.3s-0.1,0.3,0.1,0.3c0.2,0,0.4-0.2,0.6-0.4
		c0.2-0.2,0.4-0.5,0.4-0.5h-0.1c0,0-0.3,0.4-0.5,0.5s-0.1-0.1-0.1-0.1C166.4,144.6,167.1,143.4,167.1,143.4 M162.2,142.6h-0.3
		l-0.2,0.3h0.3L162.2,142.6z M158.7,143c0,0.1-0.1,0.1-0.1,0.2l0,0c0,0-0.3-0.1-0.2-0.2c0-0.2,0.2-0.3,0.3-0.3
		C158.8,142.8,158.8,143,158.7,143 M158.6,143.3c0,0-0.1,0.2-0.2,0.3c-0.1,0.1-0.3,0.3-0.4,0.3c-0.2-0.1,0-0.5,0.1-0.7
		s0.1-0.2,0.2-0.2l0,0c0,0,0,0.1,0.1,0.1C158.5,143.3,158.6,143.3,158.6,143.3L158.6,143.3 M160.3,143.6c0.1-0.2,0.2-0.4,0.4-0.6
		c0.2-0.2,0.3-0.3,0.3-0.2l0.1,0.1c0,0-0.4,0.7-0.6,0.9c0,0.1-0.1,0.1-0.1,0.2c-0.1,0.1-0.1,0.1-0.2,0.1h-0.1
		C160.1,143.9,160.2,143.8,160.3,143.6 M158.7,142.5c-0.4-0.1-0.9,0.5-1.2,1c-0.2,0.3-0.2,0.7,0.1,0.8s0.7-0.4,0.8-0.5
		s0.3-0.4,0.3-0.4h0.1h0.1c0,0-0.1,0.1-0.1,0.2c-0.1,0.1-0.3,0.6,0.1,0.8c0.4,0.1,0.9-0.4,0.9-0.4s-0.2,0.4,0.1,0.5s0.5-0.3,0.5-0.3
		s-0.1,0.2,0.1,0.3c0.4,0,1-0.9,1-0.9h-0.1c0,0-0.3,0.4-0.5,0.5s-0.1-0.1-0.1-0.1c0.1-0.1,0.7-1.2,0.7-1.2h-0.4v0.1
		c0,0-0.1-0.1-0.2-0.1c-0.4,0-0.8,0.6-1,0.9c-0.2,0.3-0.6,0.7-0.8,0.7c-0.2-0.1,0-0.5,0.2-0.8s0.5-0.6,0.6-0.6s0.1,0.1,0.1,0.1
		s-0.1,0-0.2,0.1c-0.1,0.1-0.1,0.2,0,0.2c0.1,0.1,0.2,0,0.3-0.1c0.2-0.3,0.1-0.5-0.1-0.5c-0.4-0.1-0.7,0.4-0.9,0.6
		c-0.2,0.1-0.2,0.1-0.2,0.1S159.1,142.6,158.7,142.5 M160.6,144.8c-0.2-0.1-0.5-0.2-0.8-0.2c-0.8,0-1.8,0.4-2.4,0.4
		c-0.7,0-0.8-0.6-0.7-0.9c0.1-0.7,0.6-1.3,0.9-1.6c0.3-0.3,0.6-0.6,0.9-0.7c0.3-0.1,0.2,0.1,0.2,0.2h-0.1c-0.1,0-0.1,0.1-0.1,0.2
		c0,0.2,0.2,0.2,0.4-0.2c0.1-0.3-0.1-0.4-0.2-0.4c-0.2,0-0.5,0-0.9,0.3c-0.6,0.4-1.5,1.3-1.5,2.3c0,0.6,0.4,0.9,0.9,0.9
		s1.2-0.3,1.9-0.3c0.4,0,0.7,0.1,0.8,0.4c0,0,0.1-0.2,0.5-0.2c0.3,0,0.6,0.1,0.9,0.3C161.1,145.2,160.8,145,160.6,144.8
		 M164.2,142.3c-0.1,0.2-0.2,0.4-0.4,0.5c-0.2,0.2-0.3,0.2-0.3,0.1c-0.1-0.1,0-0.4,0.3-0.7s0.5-0.4,0.5-0.4
		C164.3,141.9,164.3,142.1,164.2,142.3 M163.1,143.4c-0.2,0-0.5,0.2-0.7,0.5c-0.2,0.4-0.2,0.6-0.2,0.6s0.1-0.1,0.2-0.2
		c0.1-0.1,0.2-0.1,0.2-0.1s0-0.1,0.1-0.3c0.1-0.1,0.2-0.3,0.3-0.3c0.3-0.1,0.1,0.4-0.1,0.7c-0.1,0.2-0.5,0.6-0.8,0.6
		s-0.4-0.3-0.3-0.6c0.1-0.3,0.2-0.6,0.6-1.3c0.4-0.6,0.9-1,1.2-1.2s0.4-0.1,0.4-0.1s-0.4,0.2-0.6,0.5c-0.2,0.3-0.3,0.6-0.2,0.7
		c0.1,0.1,0.4,0.1,0.7-0.4s0.3-0.8,0.3-0.8s0,0,0.1,0c0.2,0,0.3,0,0.5,0.1s0.4,0.3,0.7,0.4c0.1-0.1,0.2-0.2,0.3-0.3
		c-0.4-0.2-0.7-0.4-1-0.5c-0.3,0-0.6,0.1-0.6,0.1s-0.1-0.1-0.4-0.1c-0.3,0-1.2,0.4-2,1.7c-0.7,1.2-0.4,1.8,0.1,1.8
		c0.6,0,1.1-0.6,1.3-1.1C163.5,143.5,163.3,143.4,163.1,143.4"/>
</g>
<g>
	<path class="st10" d="M182.6,144.9c0,0.1-0.1,0.1-0.1,0.1c-0.1,0-0.1-0.1-0.1-0.1c0-0.1,0-0.1,0.1-0.1
		C182.5,144.8,182.6,144.8,182.6,144.9L182.6,144.9z M182.5,144.7c-0.1,0-0.1,0.1-0.1,0.1c0,0.1,0.1,0.1,0.1,0.1
		c0.1,0,0.1-0.1,0.1-0.1l0,0C182.6,144.8,182.6,144.7,182.5,144.7"/>
</g>
<g>
	<path class="st10" d="M182.5,144.9L182.5,144.9L182.5,144.9L182.5,144.9L182.5,144.9C182.5,144.8,182.5,144.8,182.5,144.9
		 M182.5,144.9L182.5,144.9C182.5,144.8,182.5,144.8,182.5,144.9C182.5,144.8,182.5,144.8,182.5,144.9L182.5,144.9L182.5,144.9
		L182.5,144.9L182.5,144.9L182.5,144.9L182.5,144.9L182.5,144.9L182.5,144.9z"/>
</g>
<g>
	<rect x="184.6" y="201.8" class="st3" width="17.2" height="5.4"/>
</g>
<g>
	<rect x="160.1" y="201.8" class="st3" width="17.2" height="5.4"/>
</g>
<g>
	<path class="st5" d="M194.9,207.3l0.8,15.3c0,0,0.4,2.4-2.4,2.4c-2.9,0-2.5-1.6-2.5-2.3c0-0.8,0.5-15.3,0.5-15.3L194.9,207.3
		L194.9,207.3z"/>
</g>
<g>
	<path class="st5" d="M162.6,207.3h1.3l0.9,12.8c0,0,0,2,1.7,2h2.1h0.4h2.1c1.7,0,1.7-2,1.7-2l0.9-12.8h1.3l-0.3,14.9
		c0,0-0.1,2.7-1.8,2.7h-3.8h-0.3H165c-1.7,0-1.8-2.7-1.8-2.7L162.6,207.3"/>
</g>
<g>
	<path class="st11" d="M202.8,174.8c0,1.4-1.1,2.5-2.5,2.5h-38.7c-1.4,0-2.5-1.1-2.5-2.5v-21.2c0-1.4,1.1-2.5,2.5-2.5h38.7
		c1.4,0,2.5,1.1,2.5,2.5V174.8z"/>
</g>
<g>
	<rect x="161" y="152.9" class="st12" width="39.9" height="22.7"/>
</g>
<g>
	<g>
		<defs>
			<rect id="SVGID_1_" x="227.2" y="88.1" width="43.5" height="175.5"/>
		</defs>
		<clipPath id="SVGID_2_">
			<use xlink:href="#SVGID_1_"  style="overflow:visible;"/>
		</clipPath>
		<g class="st13">
			<path class="st5" d="M242.3,88.4c-6.3,24.4,2,48,14,76.5c12.3,32.3,10.4,61.2-5.5,101.9l-24.4-2c20-29.4,30.1-77.1,21.9-112.6
				c-5.8-25.3-21.1-41.4-20-65L242.3,88.4z"/>
		</g>
	</g>
</g>
</svg>
