<?xml version="1.0" encoding="utf-8"?>
<!-- Generator: Adobe Illustrator 20.0.0, SVG Export Plug-In . SVG Version: 6.00 Build 0)  -->
<svg version="1.1" id="Layer_1" xmlns="http://www.w3.org/2000/svg" xmlns:xlink="http://www.w3.org/1999/xlink" x="0px" y="0px"
	 viewBox="0 0 406 406" style="enable-background:new 0 0 406 406;" xml:space="preserve">
<style type="text/css">
	.st0{fill:#F1F2F2;}
	.st1{enable-background:new    ;}
	.st2{fill:#939598;}
	.st3{fill:#EE2B2A;}
	.st4{fill:#ECECEB;}
	.st5{fill:#CD2528;}
	.st6{fill:#AAACAE;}
	.st7{fill:#BCBDBD;}
	.st8{clip-path:url(#SVGID_2_);}
	.st9{fill:#E2E3E2;}
	.st10{fill:#4A4D4E;}
	.st11{fill:#313235;}
	.st12{fill:#FFFFFF;}
</style>
<g>
	<g>
		<circle class="st0" cx="203" cy="203" r="203"/>
	</g>
</g>
<g class="st1">
	<g>
		<path class="st2" d="M162.4,368.4l2.4-3.5c1.5,1.2,2.8,1.8,4.6,1.8c2.6,0,4-2,4.3-4.8c-1,0.9-2.4,1.4-4.3,1.4
			c-4.6,0-7.5-2.5-7.5-6.8v-0.1c0-4.2,3.3-7.3,8-7.3c2.8,0,4.5,0.7,6.1,2.3c1.5,1.5,2.5,3.8,2.5,7.9v0.1c0,6.8-3.2,11.5-9.2,11.5
			C166.2,370.9,164.1,369.9,162.4,368.4z M173.7,356.4L173.7,356.4c0-1.9-1.4-3.3-3.7-3.3c-2.3,0-3.6,1.3-3.6,3.2v0.1
			c0,1.9,1.4,3.1,3.7,3.1S173.7,358.2,173.7,356.4z"/>
		<path class="st2" d="M181.7,360.1L181.7,360.1c0-6.1,3.8-10.9,9.4-10.9c5.5,0,9.3,4.7,9.3,10.8v0.1c0,6.1-3.8,10.9-9.4,10.9
			S181.7,366.2,181.7,360.1z M195.6,360.1L195.6,360.1c0-3.9-1.9-6.8-4.6-6.8c-2.8,0-4.6,2.8-4.6,6.6v0.1c0,3.8,1.8,6.7,4.6,6.7
			S195.6,363.9,195.6,360.1z"/>
		<path class="st2" d="M203.6,360.1L203.6,360.1c0-6.1,3.8-10.9,9.4-10.9c5.5,0,9.3,4.7,9.3,10.8v0.1c0,6.1-3.8,10.9-9.4,10.9
			C207.3,370.9,203.6,366.2,203.6,360.1z M217.5,360.1L217.5,360.1c0-3.9-1.9-6.8-4.6-6.8s-4.6,2.8-4.6,6.6v0.1
			c0,3.8,1.8,6.7,4.6,6.7S217.5,363.9,217.5,360.1z"/>
		<path class="st2" d="M225.5,360.1L225.5,360.1c0-6.1,3.8-10.9,9.4-10.9c5.6,0,9.3,4.7,9.3,10.8v0.1c0,6.1-3.8,10.9-9.4,10.9
			S225.5,366.2,225.5,360.1z M239.4,360.1L239.4,360.1c0-3.9-1.9-6.8-4.6-6.8c-2.8,0-4.6,2.8-4.6,6.6v0.1c0,3.8,1.8,6.7,4.6,6.7
			C237.6,366.8,239.4,363.9,239.4,360.1z"/>
	</g>
</g>
<g>
	<g>
		<path class="st3" d="M240.1,259.2c0,1.6-1.3,2.8-2.8,2.8h-10.4c-1.6,0-3.6-1-4.6-2.2c0,0-1.5-1.8-13.7-1.8s-19,2.9-19,2.9
			c-1.4,0.6-3.9,1.1-5.4,1.1h-15.3c-1.6,0-2.8-1.3-2.8-2.8V73.6c0-1.6,1.3-2.8,2.8-2.8h68.6c1.6,0,2.8,1.3,2.8,2.8v185.6H240.1z"/>
	</g>
</g>
<g>
	<g>
		<path class="st4" d="M187.5,70.8c0,0-30.4,85,0,127.1s36.1,55.4,36.5,63.7c0,0-11.1-1.2-18.6-1.2s-18.2,1.2-18.2,1.2
			s5.2-15.3-13.3-78.4c-13.2-44.9,1.2-112.5,1.2-112.5"/>
	</g>
</g>
<g>
	<g>
		<path class="st5" d="M231.1,152.3c0,11.7-12.6,21.2-28.1,21.2s-28.1-9.5-28.1-21.2s12.6-21.2,28.1-21.2
			C218.5,131,231.1,140.5,231.1,152.3"/>
	</g>
</g>
<g>
	<g>
		<path class="st6" d="M229.4,152.3c0,10.8-11.8,19.5-26.4,19.5c-14.6,0-26.4-8.7-26.4-19.5s11.8-19.5,26.4-19.5
			C217.6,132.8,229.4,141.5,229.4,152.3"/>
	</g>
</g>
<g>
	<g>
		<path class="st7" d="M196.7,138.5v1.4l1.4,2.1c0,0.1,0.5,0.9,0.6,1.7s0.4,8.7,0.4,9.2l0,0l0,0c0,0,0,0.9,0.7,1.6
			c0.6,0.6,1.6,0.9,3,0.8l0,0l0,0c1.4,0.1,2.4-0.2,3-0.8c0.7-0.7,0.7-1.6,0.7-1.6l0,0l0,0c0-0.4,0.3-8.4,0.4-9.2
			c0.1-0.8,0.5-1.6,0.6-1.7l1.4-2.1v-0.8v-0.6h0.9v1l-1.5,2.3c0,0-0.5,0.8-0.5,1.6c-0.1,0.8-0.4,11.8-0.4,11.8s0.2,3.3-4.3,3.1
			c-4.5,0.3-4.3-3.1-4.3-3.1s-0.3-11-0.4-11.8c-0.1-0.8-0.5-1.6-0.5-1.6l-1.5-2.3v-1"/>
	</g>
</g>
<g>
	<g>
		<defs>
			<path id="SVGID_1_" d="M176.6,152.3c0,10.8,11.8,19.5,26.4,19.5c14.6,0,26.4-8.7,26.4-19.5s-11.8-19.5-26.4-19.5
				C188.4,132.8,176.6,141.5,176.6,152.3"/>
		</defs>
		<clipPath id="SVGID_2_">
			<use xlink:href="#SVGID_1_"  style="overflow:visible;"/>
		</clipPath>
		<g class="st8">
			<g>
				<rect x="194.2" y="132.4" class="st7" width="16.9" height="6.1"/>
			</g>
		</g>
	</g>
</g>
<g>
	<g>
		<path class="st9" d="M220,118.3c0,0.5-0.4,0.8-0.8,0.8H187c-0.5,0-0.8-0.4-0.8-0.8V94.2c0-0.5,0.4-0.8,0.8-0.8h32.1
			c0.5,0,0.8,0.4,0.8,0.8L220,118.3L220,118.3z"/>
	</g>
</g>
<g>
	<g>
		<path class="st10" d="M203.1,181.3c-26.2,0-36.9-4.3-37-4.3l0.2-0.4c0.1,0,10.7,4.3,36.8,4.3c26,0,36.7-4.2,36.8-4.3l0.2,0.4
			C240,177,229.2,181.3,203.1,181.3z"/>
	</g>
</g>
<g>
	<g>
		<polygon class="st11" points="169.3,262 170.4,273.2 171.9,273.2 171.9,274.8 175.6,274.8 175.6,273.2 177.4,273.2 178.4,262 		
			"/>
	</g>
</g>
<g>
	<g>
		<polygon class="st11" points="228.4,262 229.4,273.2 230.9,273.2 230.9,274.8 234.6,274.8 234.6,273.2 236.4,273.2 237.4,262 		
			"/>
	</g>
</g>
<g>
	<g>
		<path class="st12" d="M203.3,91.2c0-0.2,0.2-0.4,0.4-0.4c0.3,0,0.4,0.2,0.4,0.4H203.3z M204.3,91.2c0-0.3-0.2-0.6-0.6-0.6
			c-0.4,0-0.6,0.3-0.6,0.7l0,0c0,0.4,0.3,0.7,0.6,0.7c0.2,0,0.4-0.1,0.5-0.2c0,0,0,0,0-0.1c0,0,0-0.1-0.1-0.1c0,0,0,0-0.1,0
			c-0.1,0.1-0.2,0.1-0.4,0.1s-0.4-0.2-0.4-0.4L204.3,91.2C204.3,91.3,204.3,91.3,204.3,91.2 M202.4,90.6L202.4,90.6l-0.5,1.1l-0.4-1
			c0,0,0-0.1-0.1-0.1s-0.1,0-0.1,0.1c0,0,0,0,0,0.1l0.5,1.1l0,0c-0.1,0.2-0.1,0.2-0.3,0.2c-0.1,0-0.1,0-0.1,0l0,0c0,0-0.1,0-0.1,0.1
			c0,0,0,0.1,0.1,0.1s0.1,0,0.2,0c0.2,0,0.3-0.1,0.4-0.4L202.4,90.6C202.5,90.7,202.5,90.7,202.4,90.6
			C202.5,90.6,202.5,90.6,202.4,90.6 M195.3,90.7h-0.5v-0.2c0-0.2,0.1-0.3,0.2-0.3c0.1,0,0.1,0,0.2,0c0,0,0.1,0,0.1-0.1
			c0,0,0-0.1-0.1-0.1c0,0-0.1,0-0.2,0c-0.1,0-0.2,0-0.3,0.1s-0.1,0.2-0.1,0.3v0.2h-0.2c0,0-0.1,0-0.1,0.1c0,0,0,0.1,0.1,0.1h0.2v1
			c0,0.1,0,0.1,0.1,0.1s0.1,0,0.1-0.1v-1h0.4C195.4,90.8,195.4,90.8,195.3,90.7C195.4,90.7,195.4,90.7,195.3,90.7 M198,91.2
			c0-0.2,0.2-0.4,0.4-0.4c0.3,0,0.4,0.2,0.4,0.4H198z M198.4,90.6c-0.4,0-0.6,0.3-0.6,0.7l0,0c0,0.4,0.3,0.7,0.6,0.7
			c0.2,0,0.4-0.1,0.5-0.2c0,0,0,0,0-0.1c0,0,0-0.1-0.1-0.1c0,0,0,0-0.1,0c-0.1,0.1-0.2,0.1-0.4,0.1s-0.4-0.2-0.4-0.4h0.9
			c0,0,0.1,0,0.1-0.1C199,90.9,198.8,90.6,198.4,90.6 M202.8,90.1C202.8,90.1,202.7,90.1,202.8,90.1l-0.1,1.7c0,0.1,0,0.1,0.1,0.1
			s0.1,0,0.1-0.1L202.8,90.1C202.9,90.1,202.9,90.1,202.8,90.1 M196.2,90.6c-0.2,0-0.3,0.1-0.4,0.3v-0.2c0-0.1,0-0.1-0.1-0.1
			s-0.1,0-0.1,0.1v1.1c0,0.1,0,0.1,0.1,0.1s0.1,0,0.1-0.1v-0.4c0-0.4,0.2-0.5,0.4-0.6C196.3,90.8,196.3,90.7,196.2,90.6
			C196.3,90.6,196.3,90.6,196.2,90.6 M201.1,90.8C201.1,90.8,201.2,90.8,201.1,90.8c0.1-0.1,0-0.2,0-0.2h-0.3v-0.3
			c0-0.1,0-0.1-0.1-0.1s-0.1,0-0.1,0.1v0.3h-0.1c0,0-0.1,0-0.1,0.1c0,0,0,0.1,0.1,0.1h0.1v0.8c0,0.3,0.2,0.4,0.4,0.4
			c0.1,0,0.1,0,0.2,0c0,0,0.1,0,0.1-0.1c0,0,0-0.1-0.1-0.1c0,0,0,0-0.1,0s-0.2-0.1-0.2-0.2v-0.7h0.2V90.8z M196.6,91.2
			c0-0.2,0.2-0.4,0.4-0.4c0.3,0,0.4,0.2,0.4,0.4H196.6z M197,90.6c-0.4,0-0.6,0.3-0.6,0.7l0,0c0,0.4,0.3,0.7,0.6,0.7
			c0.2,0,0.4-0.1,0.5-0.2c0,0,0,0,0-0.1c0,0,0-0.1-0.1-0.1c0,0,0,0-0.1,0c-0.1,0.1-0.2,0.1-0.4,0.1s-0.4-0.2-0.4-0.4h0.9
			c0,0,0.1,0,0.1-0.1C197.6,90.9,197.4,90.6,197,90.6 M199.8,91.2c-0.2-0.1-0.3-0.1-0.3-0.2l0,0c0-0.1,0.1-0.2,0.2-0.2
			c0.1,0,0.2,0,0.3,0.1l0,0c0,0,0.1,0,0.1-0.1v-0.1c-0.1-0.1-0.3-0.1-0.4-0.1c-0.3,0-0.4,0.1-0.4,0.4l0,0c0,0.2,0.2,0.3,0.4,0.4
			c0.2,0,0.3,0.1,0.3,0.2l0,0c0,0.1-0.1,0.2-0.3,0.2c-0.1,0-0.3,0-0.4-0.1l0,0c0,0-0.1,0-0.1,0.1v0.1c0.1,0.1,0.3,0.2,0.5,0.2
			c0.3,0,0.5-0.1,0.5-0.4l0,0C200.2,91.3,200,91.2,199.8,91.2 M193.9,89.8c-0.2,0.1-0.4,0.2-0.7,0.2c-0.1,0.1-0.1,0.1-0.2,0.2
			c0.4,0.1,0.8-0.2,1-0.4c0.1-0.1,0.2-0.3,0.2-0.3S194.1,89.7,193.9,89.8 M193,91.6l-0.1,0.1c-0.1,0.1-0.1,0.1-0.1,0.1l0,0
			c0,0,0-0.1,0.1-0.3c0.1-0.1,0.2-0.3,0.3-0.4c0.1-0.2,0.2-0.2,0.2-0.2l0,0l0,0C193.3,91.1,193.1,91.5,193,91.6 M191.8,91.3
			L191.8,91.3c-0.1,0-0.2-0.1-0.2-0.2s0.2-0.2,0.2-0.2c0.1,0,0,0.2,0,0.2C191.9,91.2,191.8,91.3,191.8,91.3 M191.8,91.4
			c0,0-0.1,0.1-0.1,0.2c-0.1,0.1-0.2,0.2-0.3,0.2s0-0.3,0.1-0.5c0.1-0.1,0.1-0.1,0.1-0.1l0,0c0,0,0,0.1,0.1,0.1
			C191.7,91.4,191.8,91.4,191.8,91.4L191.8,91.4 M193.7,90.8h-0.3v0.1l-0.1-0.1c-0.1,0-0.3,0.1-0.5,0.3c-0.1,0.1-0.3,0.5-0.3,0.5
			l-0.2,0.2c-0.1,0,0.1-0.6,0.1-0.6s0.1-0.1,0.3-0.2c0.1-0.1,0.2-0.2,0.4-0.3c0.1-0.1,0.2-0.3,0.4-0.4h-0.1
			c-0.1,0.1-0.2,0.3-0.3,0.4s-0.3,0.3-0.4,0.3c-0.1,0.1-0.2,0.1-0.2,0.1s0.2-0.4,0.5-0.8s0.7-0.8,0.7-0.6c0,0.1,0,0.1-0.1,0.2h0.1
			c0.1-0.1,0.1-0.3,0-0.3c-0.2-0.1-0.8,0.4-1,0.8c-0.3,0.3-0.5,0.9-0.5,0.9s0,0-0.1,0l0,0l0,0c0,0,0.2-0.5,0-0.5
			c-0.2-0.1-0.7,0.4-0.8,0.7c-0.1,0.2-0.2,0.5,0,0.5c0.2,0.1,0.5-0.3,0.6-0.4s0.2-0.3,0.2-0.3s0,0,0.1,0h0.1c0,0,0,0.1-0.1,0.2
			c-0.1,0.2-0.1,0.5,0.1,0.5c0.1,0,0.4-0.3,0.4-0.3s-0.1,0.2,0.1,0.3c0.1,0,0.3-0.2,0.3-0.2s0,0.2,0.1,0.2s0.3-0.1,0.4-0.3
			c0.2-0.2,0.3-0.4,0.3-0.4h-0.1c0,0-0.2,0.3-0.3,0.4s-0.1,0,0-0.1C193.2,91.6,193.7,90.8,193.7,90.8 M190.4,90.2h-0.2l-0.1,0.2h0.2
			L190.4,90.2z M187.9,90.5C187.9,90.6,187.9,90.6,187.9,90.5L187.9,90.5c0,0.1-0.2,0.1-0.2-0.1c0-0.1,0.2-0.2,0.2-0.2
			C188,90.4,188,90.5,187.9,90.5 M187.8,90.8c0,0-0.1,0.1-0.2,0.2c-0.1,0.1-0.2,0.2-0.3,0.2s0-0.3,0.1-0.5c0.1-0.1,0.1-0.2,0.1-0.2
			l0,0c0,0,0,0.1,0.1,0.1C187.8,90.7,187.8,90.7,187.8,90.8C187.8,90.7,187.8,90.7,187.8,90.8 M189,90.9c0.1-0.1,0.2-0.3,0.3-0.4
			c0.1-0.2,0.2-0.2,0.2-0.2l0,0c0,0-0.3,0.5-0.4,0.6H189c-0.1,0.2-0.1,0.2-0.1,0.2l0,0C188.9,91.2,188.9,91.1,189,90.9 M187.9,90.2
			c-0.2-0.1-0.6,0.4-0.8,0.7c-0.1,0.2-0.2,0.5,0,0.5c0.2,0.1,0.5-0.3,0.6-0.4s0.2-0.3,0.2-0.3s0,0,0.1,0h0.1c0,0,0,0.1-0.1,0.2
			s-0.2,0.4,0.1,0.5c0.2,0.1,0.6-0.3,0.6-0.3s-0.1,0.3,0.1,0.3c0.2,0,0.4-0.2,0.4-0.2s0,0.2,0.1,0.2c0.2,0,0.7-0.6,0.7-0.6h-0.1
			c0,0-0.2,0.3-0.3,0.3c-0.1,0.1-0.1,0,0-0.1c0-0.1,0.5-0.9,0.5-0.9h-0.3l0,0l-0.1-0.1c-0.3,0-0.6,0.4-0.7,0.6
			c-0.1,0.2-0.4,0.5-0.6,0.5c-0.2-0.1,0-0.4,0.1-0.5c0.1-0.2,0.3-0.4,0.4-0.4c0.1,0,0.1,0.1,0.1,0.1s-0.1,0-0.1,0.1
			c0,0-0.1,0.1,0,0.2s0.1,0,0.2-0.1c0.1-0.2,0-0.3-0.1-0.4c-0.2,0-0.5,0.3-0.6,0.4s-0.2,0.1-0.2,0.1S188.2,90.3,187.9,90.2
			 M189.3,91.8c-0.2-0.1-0.4-0.2-0.6-0.2c-0.6,0-1.2,0.3-1.6,0.3c-0.5,0-0.5-0.4-0.5-0.6c0.1-0.5,0.4-0.9,0.6-1.1
			c0.2-0.2,0.4-0.4,0.6-0.5c0.2,0,0.2,0.1,0.1,0.1h-0.1c0,0-0.1,0.1-0.1,0.2s0.2,0.1,0.3-0.1s0-0.3-0.1-0.3s-0.4,0-0.6,0.2
			c-0.4,0.3-1,0.9-1.1,1.6c0,0.4,0.3,0.6,0.6,0.6c0.4,0,0.8-0.2,1.3-0.2c0.3,0,0.5,0.1,0.6,0.3c0,0,0.1-0.2,0.3-0.2s0.4,0.1,0.6,0.2
			C189.6,92,189.4,91.9,189.3,91.8 M191.7,90.1c-0.1,0.2-0.2,0.3-0.3,0.4s-0.2,0.1-0.2,0.1c-0.1-0.1,0-0.3,0.2-0.5s0.3-0.3,0.3-0.3
			C191.8,89.8,191.8,89.9,191.7,90.1 M191,90.8c-0.1,0-0.3,0.1-0.5,0.4c-0.1,0.2-0.1,0.4-0.1,0.4s0.1-0.1,0.2-0.1
			c0.1-0.1,0.2-0.1,0.2-0.1s0-0.1,0.1-0.2c0-0.1,0.1-0.2,0.2-0.2c0.2,0,0.1,0.3,0,0.5c-0.1,0.1-0.3,0.4-0.5,0.4s-0.3-0.2-0.2-0.4
			c0-0.2,0.1-0.4,0.4-0.9c0.3-0.4,0.6-0.7,0.8-0.8c0.2-0.1,0.3-0.1,0.3-0.1s-0.3,0.2-0.4,0.3c-0.1,0.2-0.2,0.4-0.2,0.5
			c0.1,0.1,0.3,0.1,0.5-0.2c0.2-0.3,0.2-0.5,0.2-0.5l0,0c0.1,0,0.2,0,0.3,0.1s0.3,0.2,0.5,0.3c0.1-0.1,0.1-0.1,0.2-0.2
			c-0.3-0.1-0.5-0.3-0.7-0.3s-0.4,0.1-0.4,0.1s-0.1-0.1-0.3-0.1s-0.9,0.3-1.4,1.2c-0.5,0.8-0.3,1.3,0.1,1.3c0.4,0,0.8-0.4,0.9-0.8
			C191.2,90.9,191.1,90.8,191,90.8"/>
	</g>
</g>
</svg>
