<?xml version="1.0" encoding="utf-8"?>
<!-- Generator: Adobe Illustrator 20.0.0, SVG Export Plug-In . SVG Version: 6.00 Build 0)  -->
<svg version="1.1" id="Layer_1" xmlns="http://www.w3.org/2000/svg" xmlns:xlink="http://www.w3.org/1999/xlink" x="0px" y="0px"
	 viewBox="0 0 406 406" style="enable-background:new 0 0 406 406;" xml:space="preserve">
<style type="text/css">
	.st0{fill:#F1F2F2;}
	.st1{enable-background:new    ;}
	.st2{fill:#939598;}
	.st3{fill:#313235;}
	.st4{fill:#EE2B2A;}
	.st5{fill:#FFFFFF;}
	.st6{fill:#AAACAE;}
	.st7{fill:#BCBDBD;}
	.st8{fill:#8F9192;}
	.st9{fill:#E51E2B;}
	.st10{opacity:0.5;enable-background:new    ;}
	.st11{fill:#E2E3E2;}
</style>
<g>
	<circle class="st0" cx="203" cy="203" r="203"/>
</g>
<g class="st1">
	<path class="st2" d="M167.1,368.4l2.4-3.5c1.5,1.2,2.8,1.8,4.6,1.8c2.6,0,4-2,4.3-4.8c-1,0.9-2.4,1.4-4.3,1.4
		c-4.6,0-7.5-2.5-7.5-6.8v-0.1c0-4.2,3.3-7.3,8-7.3c2.8,0,4.5,0.7,6.1,2.3c1.5,1.5,2.5,3.8,2.5,7.9v0.1c0,6.8-3.2,11.5-9.2,11.5
		C170.9,370.9,168.8,369.9,167.1,368.4z M178.4,356.4L178.4,356.4c0-1.9-1.4-3.3-3.7-3.3c-2.3,0-3.6,1.3-3.6,3.2v0.1
		c0,1.9,1.4,3.1,3.7,3.1S178.4,358.2,178.4,356.4z"/>
	<path class="st2" d="M190.1,354.1l-3.7,0.9l-1-3.8l6-1.8h3.1v21.1h-4.6V354.1z"/>
	<path class="st2" d="M199,360.1L199,360.1c0-6.1,3.8-10.9,9.4-10.9c5.5,0,9.3,4.7,9.3,10.8v0.1c0,6.1-3.8,10.9-9.4,10.9
		C202.7,370.9,199,366.2,199,360.1z M213,360.1L213,360.1c0-3.9-1.9-6.8-4.6-6.8s-4.6,2.8-4.6,6.6v0.1c0,3.8,1.8,6.7,4.6,6.7
		S213,363.9,213,360.1z"/>
	<path class="st2" d="M221,360.1L221,360.1c0-6.1,3.8-10.9,9.4-10.9c5.5,0,9.3,4.7,9.3,10.8v0.1c0,6.1-3.8,10.9-9.4,10.9
		C224.6,370.9,221,366.2,221,360.1z M234.9,360.1L234.9,360.1c0-3.9-1.9-6.8-4.6-6.8s-4.6,2.8-4.6,6.6v0.1c0,3.8,1.8,6.7,4.6,6.7
		S234.9,363.9,234.9,360.1z"/>
</g>
<g>
	<g>
		<g>
			<path class="st3" d="M157.7,271.2v30.7h7.5v-4.6c0-4.9,3.9-9.1,8.8-9.1h58.1c4.9,0,8.9,4.2,8.9,9.1v4.6h6.8v-30.7H157.7z"/>
		</g>
		<g>
			<path class="st4" d="M235.4,285.4h-64.8c-8,0-14.5-6.5-14.5-14.5V58.4c0-8,6.5-14.5,14.5-14.5h64.8c8,0,14.5,6.5,14.5,14.5v212.5
				C249.9,278.9,243.4,285.4,235.4,285.4"/>
		</g>
		<g>
			<path class="st4" d="M234.2,50.9h-62.4c-4.9,0-8.9,4-8.9,8.9v209.6c0,4.9,4,8.9,8.9,8.9h62.4c4.9,0,8.9-4,8.9-8.9V59.8
				C243.1,54.9,239.1,50.9,234.2,50.9"/>
		</g>
		<g>
			<path class="st5" d="M243.1,151.2c0,22.1-17.9,40-40,40s-40-17.9-40-40s17.9-40,40-40S243.1,129.1,243.1,151.2"/>
		</g>
		<g>
			<path class="st5" d="M243.1,150.9V59.8c0-4.9-4-8.6-8.9-8.6h-62.4c-4.9,0-8.6,3.7-8.6,8.6v91.1H243.1z"/>
		</g>
		<g>
			<path class="st6" d="M169.5,150.9c0-18.6,15-33.6,33.6-33.6s33.6,15.1,33.6,33.6c0,18.6-15,33.6-33.6,33.6
				C184.6,184.6,169.5,169.5,169.5,150.9"/>
		</g>
		<g>
			<polygon class="st7" points="210.1,127.4 196.1,127.4 195.4,118.2 210.7,118.2 			"/>
		</g>
		<g>
			<path class="st8" d="M197.3,119.1c0-3.2,2.6-5.9,5.9-5.9c3.2,0,5.9,2.6,5.9,5.9c0,3.2-2.6,5.9-5.9,5.9
				C199.9,125,197.3,122.4,197.3,119.1"/>
		</g>
		<g>
			<path class="st5" d="M199,119.1c0-2.3,1.9-4.1,4.1-4.1c2.3,0,4.1,1.9,4.1,4.1c0,2.3-1.9,4.1-4.1,4.1
				C200.9,123.3,199,121.4,199,119.1"/>
		</g>
		<g>
			<path class="st8" d="M174.4,164.6c5.1,10.9,16.1,18.1,28.7,18.1c12.7,0,23.6-7.2,28.7-18.1H174.4z"/>
		</g>
		<g>
			<path class="st9" d="M185.8,61.5C185.8,61.4,185.8,61.4,185.8,61.5c0-0.1-0.1-0.1-0.1-0.1h-0.1v0.2l0,0v-0.1l0,0
				C185.7,61.5,185.7,61.5,185.8,61.5C185.8,61.6,185.8,61.6,185.8,61.5L185.8,61.5L185.8,61.5L185.8,61.5L185.8,61.5L185.8,61.5
				L185.8,61.5L185.8,61.5L185.8,61.5L185.8,61.5L185.8,61.5C185.7,61.5,185.7,61.5,185.8,61.5C185.7,61.5,185.7,61.5,185.8,61.5
				L185.8,61.5 M185.7,61.5L185.7,61.5L185.7,61.5L185.7,61.5L185.7,61.5C185.7,61.4,185.7,61.4,185.7,61.5
				C185.7,61.4,185.7,61.4,185.7,61.5L185.7,61.5"/>
		</g>
		<g>
			<path class="st9" d="M175.7,56.6c0,0-0.1,0.1-0.3,0.2c-0.2,0.2-0.3,0.4-0.2,0.5c0,0,0.1,0,0.2-0.1c0.1-0.1,0.2-0.2,0.2-0.3
				C175.7,56.7,175.7,56.6,175.7,56.6 M176.6,57c-0.2-0.1-0.3-0.2-0.5-0.3c-0.1-0.1-0.2-0.1-0.3-0.1l0,0c0,0,0.1,0.2-0.2,0.5
				c-0.2,0.3-0.4,0.3-0.5,0.2s0-0.3,0.2-0.5c0.1-0.2,0.4-0.3,0.4-0.3s-0.1,0-0.3,0.1s-0.5,0.4-0.8,0.8c-0.3,0.4-0.4,0.7-0.4,0.9
				s0,0.4,0.2,0.4s0.4-0.3,0.5-0.4c0.1-0.2,0.2-0.5,0-0.5c-0.1,0-0.2,0.1-0.2,0.2c0,0.1-0.1,0.2-0.1,0.2s-0.1,0-0.2,0.1
				c-0.1,0.1-0.2,0.1-0.2,0.1s0-0.1,0.1-0.4c0.1-0.2,0.3-0.4,0.5-0.4c0.1,0,0.3,0.1,0.1,0.4c-0.1,0.3-0.5,0.8-0.9,0.8
				s-0.6-0.4-0.1-1.2c0.5-0.9,1.2-1.1,1.4-1.2c0.2,0,0.3,0.1,0.3,0.1s0.2-0.1,0.4-0.1c0.3,0,0.4,0.2,0.7,0.3
				C176.7,56.9,176.7,56.9,176.6,57 M177.8,56.7c-0.2,0.1-0.4,0.2-0.6,0.2c-0.1,0.1-0.1,0.1-0.2,0.2
				C177.4,57.2,177.8,56.9,177.8,56.7c0.2-0.1,0.3-0.3,0.3-0.3S177.9,56.6,177.8,56.7 M177.2,57.8L177.2,57.8L177.2,57.8
				c-0.1-0.1-0.1,0-0.3,0.1c-0.1,0.2-0.2,0.3-0.3,0.4c-0.1,0.1-0.1,0.2-0.1,0.3l0,0c0,0,0.1,0,0.1-0.1l0.1-0.1
				C176.9,58.3,177.2,57.9,177.2,57.8 M175.8,58c0-0.1,0.1-0.2,0-0.2s-0.2,0.1-0.2,0.2c0,0.1,0.1,0.2,0.1,0.2l0,0
				C175.7,58.1,175.8,58.1,175.8,58 M175.7,58.2c0,0-0.1,0-0.1-0.1c-0.1,0-0.1-0.1-0.1-0.1l0,0c0,0,0,0-0.1,0.1s-0.2,0.4-0.1,0.4
				c0.1,0,0.2-0.1,0.3-0.2C175.6,58.3,175.7,58.2,175.7,58.2L175.7,58.2 M177.1,58.5C177,58.6,177,58.7,177.1,58.5
				c0.2,0,0.4-0.3,0.4-0.3h0.1c0,0-0.1,0.2-0.3,0.3c-0.1,0.1-0.3,0.3-0.4,0.3c-0.1,0-0.1-0.2-0.1-0.2s-0.2,0.2-0.3,0.2
				c-0.2,0-0.1-0.2-0.1-0.2s-0.2,0.3-0.3,0.2c-0.2,0-0.2-0.3-0.1-0.5c0-0.1,0.1-0.2,0.1-0.2s0,0-0.1,0h-0.1c0,0-0.1,0.2-0.2,0.3
				c-0.1,0.1-0.4,0.4-0.6,0.4c-0.2-0.1-0.1-0.3,0-0.5c0.1-0.3,0.5-0.7,0.8-0.7c0.2,0.1,0,0.5,0,0.5l0,0l0,0h0.1c0,0,0.2-0.5,0.5-0.8
				s0.8-0.9,1-0.8c0.1,0,0,0.2,0,0.3h-0.1c0-0.1,0.1-0.2,0.1-0.2c0-0.2-0.4,0.2-0.7,0.6c-0.3,0.4-0.5,0.7-0.5,0.7s0.1,0,0.1-0.1
				c0.1-0.1,0.2-0.2,0.4-0.3c0.1-0.1,0.2-0.2,0.3-0.4h0.1c-0.1,0.2-0.2,0.3-0.3,0.4c-0.1,0.1-0.2,0.2-0.3,0.3
				c-0.2,0.1-0.3,0.2-0.3,0.2s-0.3,0.5-0.1,0.5c0.1,0,0.2-0.2,0.2-0.2s0.2-0.3,0.3-0.5c0.2-0.2,0.3-0.3,0.5-0.3
				c0.1,0,0.1,0.1,0.1,0.1v-0.1h0.2C177.6,57.7,177.1,58.5,177.1,58.5 M177.8,56.7c-0.2,0.1-0.4,0.2-0.6,0.2
				c-0.1,0.1-0.1,0.1-0.2,0.2C177.4,57.2,177.8,56.9,177.8,56.7c0.2-0.1,0.3-0.3,0.3-0.3S177.9,56.6,177.8,56.7 M174.3,57.1H174
				l-0.1,0.2h0.2L174.3,57.1z M173.2,57.8c0.1-0.1,0.4-0.6,0.4-0.6l0,0c0,0-0.1,0-0.2,0.2c-0.1,0.2-0.2,0.3-0.3,0.4
				c-0.1,0.1-0.1,0.2-0.1,0.3l0,0c0,0,0.1,0,0.1-0.1C173.1,57.9,173.1,57.9,173.2,57.8 M171.9,57.2c-0.1,0-0.2,0.1-0.2,0.2
				c0,0.1,0.1,0.2,0.2,0.2l0,0c0,0,0,0,0-0.1C171.9,57.3,172,57.2,171.9,57.2 M171.8,57.6c0,0-0.1,0-0.1-0.1c-0.1,0-0.1-0.1-0.1-0.1
				l0,0c0,0,0,0-0.1,0.2c-0.1,0.1-0.2,0.4-0.1,0.4c0.1,0,0.2-0.1,0.3-0.2C171.7,57.7,171.8,57.6,171.8,57.6L171.8,57.6 M173.7,57.7
				L173.7,57.7c0.1,0-0.3,0.6-0.6,0.6c-0.1,0-0.1-0.2-0.1-0.2s-0.2,0.2-0.4,0.2s-0.1-0.3-0.1-0.3s-0.4,0.4-0.6,0.3
				c-0.3-0.1-0.1-0.4-0.1-0.5s0.1-0.2,0.1-0.2s0,0-0.1,0h-0.1c0,0-0.1,0.2-0.2,0.3c-0.1,0.1-0.4,0.4-0.6,0.4c-0.2-0.1-0.1-0.3,0-0.5
				c0.2-0.3,0.6-0.7,0.8-0.7c0.2,0.1,0,0.5,0,0.5s0,0,0.2-0.1s0.4-0.4,0.6-0.4c0.1,0,0.2,0.1,0.1,0.3c0,0.1-0.1,0.1-0.2,0.1
				c0,0,0-0.1,0-0.2c0.1-0.1,0.1-0.1,0.1-0.1s0-0.1-0.1-0.1s-0.3,0.2-0.4,0.4c-0.1,0.2-0.3,0.5-0.1,0.5c0.1,0.1,0.4-0.3,0.6-0.4
				c0.1-0.2,0.4-0.6,0.7-0.6c0.1,0,0.1,0.1,0.1,0.1l0,0h0.2l-0.5,0.8c0,0-0.1,0.2,0,0.1C173.5,58,173.7,57.7,173.7,57.7 M173.6,58.9
				c-0.2-0.1-0.4-0.2-0.6-0.2c-0.2,0-0.3,0.2-0.3,0.2c-0.1-0.2-0.3-0.3-0.6-0.3c-0.5,0-0.9,0.2-1.3,0.2c-0.4,0-0.6-0.2-0.6-0.6
				c0-0.7,0.6-1.3,1-1.6c0.3-0.2,0.5-0.2,0.6-0.2s0.2,0.1,0.1,0.3c-0.1,0.3-0.3,0.2-0.3,0.1c0-0.1,0.1-0.1,0.1-0.2h0.1
				c0,0,0-0.2-0.1-0.1c-0.2,0-0.4,0.2-0.6,0.4c-0.2,0.2-0.5,0.7-0.6,1.1c0,0.2,0,0.6,0.5,0.6c0.4,0,1-0.3,1.6-0.3
				c0.2,0,0.4,0.1,0.6,0.2C173.4,58.7,173.5,58.8,173.6,58.9"/>
		</g>
		<g>
			<path class="st9" d="M169.8,59.6c0-0.1,0.1-0.3,0.3-0.3c0.1,0,0.3,0.1,0.3,0.3v0.2c0.1-0.3,0.3-0.5,0.6-0.5
				c0.2,0,0.3,0.1,0.3,0.3c0,0.1-0.1,0.2-0.2,0.3c-0.4,0.1-0.6,0.4-0.6,0.9v0.7c0,0.1-0.1,0.3-0.3,0.3c-0.1,0-0.3-0.1-0.3-0.3v-1.9
				H169.8z"/>
		</g>
		<g>
			<path class="st9" d="M172.4,61.7c-0.7,0-1.2-0.5-1.2-1.2l0,0c0-0.7,0.5-1.2,1.1-1.2c0.7,0,1.1,0.6,1.1,1.1c0,0.1-0.1,0.3-0.2,0.3
				h-1.4c0.1,0.4,0.3,0.6,0.7,0.6c0.2,0,0.4-0.1,0.5-0.2h0.1c0.1,0,0.2,0.1,0.2,0.2c0,0.1,0,0.1-0.1,0.2
				C173,61.6,172.8,61.7,172.4,61.7 M172.9,60.4c0-0.3-0.2-0.6-0.6-0.6c-0.3,0-0.5,0.2-0.6,0.6H172.9z"/>
		</g>
		<g>
			<path class="st9" d="M174.8,61.7c-0.7,0-1.2-0.5-1.2-1.2l0,0c0-0.7,0.5-1.2,1.1-1.2c0.7,0,1.1,0.6,1.1,1.1c0,0.1-0.1,0.3-0.2,0.3
				h-1.4c0.1,0.4,0.3,0.6,0.7,0.6c0.2,0,0.4-0.1,0.5-0.2h0.1c0.1,0,0.2,0.1,0.2,0.2c0,0.1,0,0.1-0.1,0.2
				C175.4,61.6,175.2,61.7,174.8,61.7 M175.3,60.4c0-0.3-0.2-0.6-0.6-0.6c-0.3,0-0.5,0.2-0.6,0.6H175.3z"/>
		</g>
		<g>
			<path class="st9" d="M176.1,61.4c-0.1,0-0.1-0.1-0.1-0.2c0-0.1,0.1-0.2,0.2-0.2h0.1c0.2,0.1,0.5,0.2,0.7,0.2s0.4-0.1,0.4-0.2l0,0
				c0-0.2-0.2-0.2-0.5-0.3s-0.7-0.2-0.7-0.7l0,0c0-0.4,0.4-0.7,0.8-0.7c0.2,0,0.5,0.1,0.7,0.2c0.1,0,0.1,0.1,0.1,0.2
				c0,0.1-0.1,0.2-0.2,0.2h-0.1c-0.2-0.1-0.4-0.2-0.5-0.2c-0.2,0-0.3,0.1-0.3,0.2l0,0c0,0.2,0.2,0.2,0.5,0.3s0.7,0.3,0.7,0.7l0,0
				c0,0.5-0.4,0.7-0.9,0.7C176.7,61.7,176.4,61.6,176.1,61.4"/>
		</g>
		<g>
			<path class="st9" d="M182.3,58.6c0-0.1,0.1-0.3,0.3-0.3c0.1,0,0.3,0.1,0.3,0.3v2.9c0,0.1-0.1,0.3-0.3,0.3c-0.1,0-0.3-0.1-0.3-0.3
				V58.6z"/>
		</g>
		<g>
			<path class="st9" d="M178.3,61v-1.2h-0.1c-0.1,0-0.2-0.1-0.2-0.2c0-0.1,0.1-0.2,0.2-0.2h0.1V59c0-0.2,0.1-0.3,0.3-0.3
				c0.1,0,0.3,0.1,0.3,0.3v0.4h0.4c0.1,0,0.2,0.1,0.2,0.2c0,0.1-0.1,0.2-0.2,0.2h-0.4v1.1c0,0.2,0.1,0.3,0.3,0.3c0.1,0,0.1,0,0.1,0
				c0.1,0,0.2,0.1,0.2,0.2c0,0.1-0.1,0.2-0.1,0.2c-0.1,0-0.2,0.1-0.4,0.1C178.6,61.7,178.3,61.5,178.3,61"/>
		</g>
		<g>
			<path class="st9" d="M168.4,59.8L168.4,59.8c-0.2,0-0.3-0.1-0.3-0.2c0-0.1,0.1-0.2,0.2-0.2h0.1v-0.2c0-0.3,0.1-0.5,0.2-0.6
				c0.1-0.1,0.3-0.2,0.5-0.2c0.1,0,0.2,0,0.3,0s0.2,0.1,0.2,0.2c0,0.1-0.1,0.2-0.2,0.2h-0.1c-0.2,0-0.3,0.1-0.3,0.4v0.2h0.4
				c0.1,0,0.2,0.1,0.2,0.2c0,0.1-0.1,0.2-0.2,0.2H169v1.7c0,0.1-0.1,0.3-0.3,0.3c-0.1,0-0.3-0.1-0.3-0.3V59.8z"/>
		</g>
		<g>
			<path class="st9" d="M181.9,59.6c0-0.1-0.1-0.3-0.3-0.3s-0.3,0.1-0.3,0.3c0,0.4,0,1.1,0,1.1c0,0.3-0.2,0.5-0.5,0.5
				s-0.5-0.2-0.5-0.5v-1.1c0-0.1-0.1-0.3-0.3-0.3c-0.1,0-0.3,0.1-0.3,0.3v1.1l0,0c0,0.5,0.5,1,1,1c0.2,0,0.3,0,0.5-0.1v0.7l0,0
				c0,0.3-0.2,0.5-0.5,0.5s-0.5-0.2-0.5-0.5l0,0c0-0.1-0.1-0.2-0.3-0.2c-0.1,0-0.3,0.1-0.3,0.2l0,0l0,0l0,0c0,0.5,0.5,1,1,1
				s1-0.4,1-1v-2.7"/>
		</g>
		<g>
			<path class="st9" d="M184.4,61.7c-0.7,0-1.2-0.5-1.2-1.2l0,0c0-0.7,0.5-1.2,1.1-1.2c0.7,0,1.1,0.6,1.1,1.1c0,0.1-0.1,0.3-0.2,0.3
				h-1.4c0.1,0.4,0.3,0.6,0.7,0.6c0.2,0,0.4-0.1,0.5-0.2h0.1c0.1,0,0.2,0.1,0.2,0.2c0,0.1,0,0.1-0.1,0.2
				C185,61.6,184.8,61.7,184.4,61.7 M184.9,60.4c0-0.3-0.2-0.6-0.6-0.6c-0.3,0-0.5,0.2-0.6,0.6H184.9z"/>
		</g>
		<g>
			<path class="st9" d="M185.8,61.4c0,0-0.1-0.1-0.2-0.1c-0.1,0-0.1,0-0.2,0.1l-0.1,0.1c0,0.1,0,0.1,0.1,0.1c0,0,0.1,0.1,0.2,0.1
				c0.1,0,0.1,0,0.2-0.1l0.1-0.1C185.9,61.4,185.9,61.4,185.8,61.4 M185.8,61.6l-0.1,0.1c-0.1,0-0.1,0-0.1-0.1l-0.1-0.1
				c0-0.1,0-0.1,0.1-0.1l0.1-0.1c0,0,0.1,0,0.1,0.1l0.1,0.1C185.9,61.6,185.8,61.6,185.8,61.6"/>
		</g>
		<g class="st10">
			<path class="st11" d="M240.4,108.6c0,0.7-0.8,1.4-1.8,1.4h-70.9c-1,0-1.8-0.6-1.8-1.4V69.3c0-0.7,0.8-1.4,1.8-1.4h70.9
				c1,0,1.8,0.6,1.8,1.4L240.4,108.6L240.4,108.6z"/>
		</g>
	</g>
</g>
</svg>
