<?xml version="1.0" encoding="utf-8"?>
<!-- Generator: Adobe Illustrator 19.2.1, SVG Export Plug-In . SVG Version: 6.00 Build 0)  -->
<svg version="1.1" id="Layer_1" xmlns="http://www.w3.org/2000/svg" xmlns:xlink="http://www.w3.org/1999/xlink" x="0px" y="0px"
	 viewBox="0 0 398.4 127.6" style="enable-background:new 0 0 398.4 127.6;" xml:space="preserve">
<style type="text/css">
	.st0{fill:#177CB5;}
	.st1{fill:#FCEA00;}
	.st2{fill:#009F3F;}
	.st3{fill:#CBBF93;}
	.st4{fill:#EF7D00;}
	.st5{fill:#9AC325;}
	.st6{fill:#9D3E90;}
	.st7{fill:#D5D8DA;}
	.st8{fill:#FFCD00;}
	.st9{fill:#1E3B73;}
	.st10{fill:#E41E2B;}
</style>
<title>freestyle</title>
<g>
	<path class="st0" d="M40.4,80.5c-1.7,0-3.1-1.4-3.1-3.1s1.4-3.1,3.1-3.1c1.7,0,3.1,1.4,3.1,3.1C43.5,79.2,42.2,80.5,40.4,80.5
		C40.5,80.5,40.5,80.5,40.4,80.5z"/>
	<path class="st0" d="M28.9,21.5c-3.4,0-6.1-2.7-6.1-6.1s2.7-6.1,6.1-6.1S35,12,35,15.4l0,0C35,18.7,32.3,21.4,28.9,21.5z"/>
	<circle class="st1" cx="8.7" cy="44.8" r="1.5"/>
	<circle class="st1" cx="36.3" cy="32.6" r="3.5"/>
	<circle class="st1" cx="34.7" cy="62.7" r="5.1"/>
	<circle class="st0" cx="17.8" cy="74.4" r="6.9"/>
	<circle class="st2" cx="17.9" cy="4" r="3.6"/>
	<path class="st2" d="M21.3,67c-4.6,0-8.3-3.7-8.3-8.3c0-4.6,3.7-8.3,8.3-8.3s8.3,3.7,8.3,8.3C29.6,63.3,25.9,67,21.3,67L21.3,67z"
		/>
	<path class="st3" d="M20.7,18.6c-1,0-1.7-0.8-1.7-1.7c0-1,0.8-1.7,1.7-1.7s1.7,0.8,1.7,1.7l0,0C22.4,17.8,21.6,18.6,20.7,18.6z"/>
	
		<ellipse transform="matrix(5.198990e-02 -0.9986 0.9986 5.198990e-02 -43.1126 95.7175)" class="st4" cx="28.9" cy="70.6" rx="4.2" ry="4.2"/>
	<circle class="st4" cx="44.7" cy="34.1" r="4.8"/>
	<path class="st4" d="M25.4,83.1c1.3,0,2.3-1,2.3-2.3s-1-2.3-2.3-2.3s-2.3,1-2.3,2.3S24.1,83.1,25.4,83.1L25.4,83.1z"/>
	<circle class="st4" cx="24.2" cy="30.1" r="8.3"/>
	<path class="st4" d="M40.7,14.3c-3.5,0-6.4-2.9-6.4-6.4s2.9-6.4,6.4-6.4s6.4,2.9,6.4,6.4S44.2,14.3,40.7,14.3L40.7,14.3z"/>
	<path class="st4" d="M11.9,52.9c0.3,1.6-0.7,3.2-2.3,3.5s-3.2-0.7-3.5-2.3c-0.3-1.6,0.7-3.2,2.3-3.5l0,0
		C10,50.3,11.6,51.3,11.9,52.9z"/>
	<circle class="st4" cx="34.5" cy="89.2" r="9.4"/>
	<ellipse class="st5" cx="21.5" cy="86.2" rx="3.4" ry="3.4"/>
	<circle class="st5" cx="39.7" cy="70.4" r="3.6"/>
	<circle class="st5" cx="47.2" cy="23.1" r="2.6"/>
	<circle class="st5" cx="7.9" cy="36.2" r="6.5"/>
	<path class="st6" d="M37.1,16.9c0.7,0,1.3-0.6,1.3-1.3c0-0.7-0.6-1.3-1.3-1.3s-1.3,0.6-1.3,1.3l0,0C35.8,16.3,36.4,16.9,37.1,16.9z
		"/>
	<circle class="st6" cx="20.6" cy="96.2" r="2.9"/>
	<ellipse class="st6" cx="10.2" cy="59.2" rx="2.2" ry="2.2"/>
	<path class="st7" d="M18.1,20.9c0,3.7-3,6.7-6.7,6.6c-3.7,0-6.7-3-6.6-6.7c0-3.7,3-6.6,6.7-6.6C15.1,14.2,18.1,17.2,18.1,20.9z"/>
	<path class="st7" d="M38.3,28.7c-3.1,0-5.6-2.5-5.6-5.6s2.5-5.6,5.6-5.6s5.6,2.5,5.6,5.6l0,0C43.8,26.2,41.4,28.7,38.3,28.7
		L38.3,28.7z"/>
	<path class="st7" d="M9.7,85.1c1.9,0,3.4-1.5,3.4-3.4s-1.5-3.4-3.4-3.4s-3.4,1.5-3.4,3.4C6.3,83.6,7.8,85.1,9.7,85.1L9.7,85.1z"/>
	<path class="st7" d="M31.1,79.7c1.2,0,2.2-1,2.2-2.2s-1-2.2-2.3-2.2c-1.2,0-2.2,1-2.2,2.2C28.9,78.7,29.9,79.7,31.1,79.7L31.1,79.7
		z"/>
	<circle class="st7" cx="15.3" cy="46.3" r="4.8"/>
	<circle class="st7" cx="41.4" cy="58.1" r="2.7"/>
	<circle class="st7" cx="12.9" cy="29.2" r="1.3"/>
	<path class="st3" d="M26.8,77.9c0.7,0,1.2-0.6,1.2-1.2c0-0.7-0.6-1.2-1.2-1.2c-0.7,0-1.2,0.5-1.2,1.2
		C25.6,77.3,26.1,77.9,26.8,77.9L26.8,77.9z"/>
	<path class="st8" d="M17.3,15.3c1.9,0,3.5-1.5,3.5-3.5s-1.5-3.5-3.5-3.5s-3.5,1.5-3.5,3.5l0,0C13.8,13.7,15.4,15.3,17.3,15.3z"/>
	<path class="st8" d="M15.5,85.4c-1.1,0-2-0.9-2-2s0.9-2,2-2s2,0.9,2,2S16.6,85.4,15.5,85.4z"/>
	<path class="st8" d="M35.1,76.3c-1,0-1.9-0.8-1.9-1.9s0.8-1.9,1.9-1.9c1,0,1.9,0.8,1.9,1.9S36.2,76.3,35.1,76.3
		C35.2,76.3,35.2,76.3,35.1,76.3z"/>
	<path class="st8" d="M22.6,92.9c0.7,0,1.2-0.6,1.2-1.2c0-0.7-0.6-1.2-1.2-1.2c-0.7,0-1.2,0.5-1.2,1.2
		C21.4,92.3,21.9,92.9,22.6,92.9L22.6,92.9z"/>
	<circle class="st8" cx="1.8" cy="20.9" r="1.8"/>
	<path class="st9" d="M2.9,29.6c-1.4,0-2.6-1.2-2.6-2.6s1.2-2.6,2.6-2.6s2.6,1.2,2.6,2.6l0,0C5.5,28.4,4.4,29.6,2.9,29.6z"/>
	<path class="st9" d="M25.5,98.1c-0.6,0-1.1-0.5-1.1-1.1s0.5-1.1,1.1-1.1s1.1,0.5,1.1,1.1l0,0C26.6,97.6,26.1,98.1,25.5,98.1z"/>
	<circle class="st9" cx="23" cy="8.2" r="2.4"/>
	<path class="st9" d="M6.6,50.2c1,0,1.8-0.8,1.8-1.8s-0.8-1.8-1.8-1.8s-1.8,0.8-1.8,1.8C4.8,49.4,5.6,50.2,6.6,50.2L6.6,50.2z"/>
	<circle class="st9" cx="41.7" cy="63.8" r="1.6"/>
	<path class="st10" d="M396.2,93.7c0-0.5-0.3-0.9-0.7-1.1c-0.4-0.1-0.8-0.2-1.2-0.1h-1.6v4.4h0.8v-1.7h0.6c0.3,0,0.6,0,0.8,0.1
		c0.3,0.2,0.5,0.6,0.4,1v0.5c0,0,0,0,0,0.1l0,0h0.8l-0.1-0.1v-0.3c0-0.1-0.1-0.2-0.1-0.3v-0.3c0-0.2-0.1-0.5-0.2-0.7
		c-0.2-0.2-0.5-0.4-0.8-0.4c0.2,0,0.4-0.1,0.6-0.2C396,94.4,396.2,94.1,396.2,93.7z M395,94.5c-0.2,0.1-0.5,0.1-0.7,0.1h-0.7V93h0.6
		c0.3,0,0.6,0,0.9,0.2c0.2,0.1,0.3,0.4,0.3,0.6C395.4,94.1,395.3,94.4,395,94.5z"/>
	<path class="st10" d="M207.2,3.5c-2.3,1.1-4.3,2.7-6,4.7c-3.2,3.6-5.1,7.5-3.7,8.6c0.5,0.4,1.8,0.5,4-1.5c2-1.8,3.6-4,4.7-6.5
		C207.6,5.2,207.2,3.6,207.2,3.5 M224.8,9.9c-3.6-1.8-6.2-4.1-8.9-5.4s-4.3-1.9-6.4-1.6c-0.3,0.1-0.6,0.1-0.9,0.2
		c0,0,1.1,3.7-3.2,9.9s-8.3,6.2-9.4,4.5s0.3-5.5,2.9-8.8c2.1-2.5,4.6-4.6,7.3-6.3c0,0-1.5-0.9-5.1,1.2s-9.7,6.8-15.4,14.9
		s-6.8,12.5-7.6,16s-0.1,7.2,3.8,7.2s8.4-5.9,9.7-8c2.4-3.8,3.9-9.7,0.7-8.9c-1.6,0.4-2.9,2.2-3.7,3.9c-0.5,1.1-0.9,2.2-1.2,3.4
		c-1.1,0.5-2.2,1.1-3.2,1.8c-1.1,0.8-2.1,1.7-3,2.6c0,0,0-2.8,2.2-7.3s6.3-6.6,8.6-6.8c2.1-0.2,4.8,1.6,2.5,8.2s-9.1,14.5-16.2,14.6
		c-6.6,0.1-10.9-8.3-1.8-23C186.6,6,198.5,1,202.4,0.5s5.1,1.1,5.1,1.1c2.3-1,4.8-1.4,7.3-1.2c4.7,0.3,8.4,3.7,13.2,6
		C227,7.4,225.8,8.7,224.8,9.9 M245.9,4.4c-3.3,2.1-7.8,4-12.1,3.6c-1.1,1.1-2.3,2.4-3.5,3.9c7.5,1.5,14.1-3.2,17.7-7.2
		c1.3-1.4,2.4-3,3.2-4.7C249.6,1.6,247.9,3.1,245.9,4.4 M235.9,25.6c0.1-0.1,0.1-0.2,0.1-0.3c0-0.4-0.3-0.6-0.7-0.7
		c-0.7,0-1.7,0.1-4.2,2.9c-2.1,2.4-4,5-5.5,7.8c-1.5,2.7-2,4.7-1.2,5.2c0.3,0.1,0.6,0.2,0.9,0.1c0.9-0.4,1.7-1,2.2-1.8
		c0.5-0.5,1-1.3,1.6-2.1C230.8,34.4,235.1,27.1,235.9,25.6 M209.2,28.8c0.4-1.1,1-3.3-0.1-4.2s-4.3,1.3-4.4,3.5s2.2,3.3,2.7,3.4
		c0.3,0.1,0.4,0.1,0.6-0.2C208.5,30.5,208.9,29.7,209.2,28.8 M206.9,32.9c-0.8-0.4-1.5-0.8-2.1-1.3c-0.7-0.5-1.2-1.2-1.6-1.9
		c0-0.1-0.1,0-0.1,0.1s-0.2,0.2-1.9,2.7s-4.2,7.5-1.9,8.3c1.5,0.6,3.9-2,5.3-3.8c0.9-1.2,1.7-2.4,2.5-3.8
		C207,32.9,207,32.9,206.9,32.9 M233,38.7c-0.6,1-1.3,2.9,0.7,1.7c2.5-1.5,6.1-6.9,6.1-6.9h1.6c-1.5,2.3-3.1,4.4-4.9,6.5
		c-2.5,2.8-5.7,5.4-7.9,5.1c-2.6-0.3-1.8-3.7-1.8-3.7s-3.7,3.9-6.2,3.6c-3.4-0.4-2.4-4.6-2.4-4.6s-3.9,4.8-6.5,4.6
		c-4.1-0.2-3.1-5.3-2-8.8c0.6-1.9,1.2-3.4,1.2-3.4s-0.4,0.1-1.3,0.2c-0.5,0.1-1.3,0.1-1.3,0.1c-0.9,1.7-2,3.3-3.1,4.8
		c-1.4,1.9-7.2,8.1-10.7,6.9c-3.2-1.2-2.1-6-0.3-9.9c2.7-5.7,10.3-13.8,14.7-12.7c4.5,1.1,0.1,9.4,0.1,9.4l0,0
		c0.3,0.1,0.6,0.1,0.9,0c0.6-0.1,1.1-0.3,1.7-0.5c0,0,4.6-9.6,9.6-15.8s15.1-17.1,19.1-14.4c1,0.6,0.5,2.8-0.8,5.5
		c-0.6,0.2-1.2,0.3-1.8,0.4c0.7-1.2,1.3-2.5,1.6-3.8c0.6-3.2-7,3.6-12.4,10.9c-3.2,4.4-6.1,9.1-8.6,14c1-0.6,1.9-1.3,2.8-2
		c2.4-2,4.7-4.1,6.8-6.4c2.1-2.1,4-4.4,5.8-6.7c0.6,0,1.2-0.1,1.7-0.2c-2,2.7-4.1,5.2-6.4,7.6c-2.1,2.2-4.5,4.5-6.5,6.2
		c-1.8,1.5-3.7,3-5.7,4.2c0,0-4.8,9.5-2.2,10.1c1.5,0.4,4.5-4.2,4.5-4.2c1.9-3,4-5.8,6.2-8.6c3.2-3.7,6-5.7,8.7-5.8
		c1.1,0.1,2,0.7,2.6,1.7l0.8-1.2h4.6C242.3,22.9,233.7,37.6,233,38.7 M245.9,4.4c-3.3,2.1-7.8,4-12.1,3.6c-1.1,1.1-2.3,2.4-3.5,3.9
		c7.5,1.5,14.1-3.2,17.7-7.2c1.3-1.4,2.4-3,3.2-4.7C249.6,1.7,247.8,3.2,245.9,4.4 M180.7,11.7h-4.4l-2.5,4h4.4L180.7,11.7z
		 M159.8,25.7c1.9-2.6,7.1-11.6,7.1-11.6c0-0.4-0.3-0.6-0.7-0.6c-0.7,0-1.9,0.2-4.3,3.2c-2.1,2.4-3.9,5.1-5.6,7.8
		c-1.5,2.7-2.1,4.6-1.2,5.1c0.3,0.1,0.6,0.2,0.9,0.1c0.9-0.4,1.7-1,2.3-1.8C158.6,27.2,159.2,26.5,159.8,25.7 M136.1,13.5
		c-1.2-0.9-4.3,1.2-4.3,3.4s2.8,2.9,3.2,2.9c0.2,0,0.4,0,0.4-0.2c0.3-0.6,0.6-1.3,0.9-2C136.7,16.6,137.3,14.4,136.1,13.5
		 M134.3,21.3c-0.8-0.3-1.6-0.6-2.4-1.1c-0.7-0.5-1.3-1.1-1.7-1.9c-0.1-0.1-0.1,0-0.1,0s-0.3,0.4-2,2.8s-4.1,7.4-1.8,8.3
		c1.5,0.5,4-2.1,5.3-3.8s2.7-4.1,2.8-4.2S134.3,21.3,134.3,21.3 M170.3,22.7h1.6c0,0-8.1,11.8-12.7,11.2c-2.5-0.3-1.8-3.4-1.8-3.4
		s-3.6,4.2-6.9,3.4c-3-0.8-1.1-5.7-1.1-5.7c-0.3,0.1-6.8,7.4-11.4,5.7c-4.8-1.8-2.3-7.9-1.4-9.8c0.8-1.5,1.6-3,1.6-3
		s-0.8,0.2-1.2,0.3l-1.1,0.2c0,0-2.2,3.7-3.6,5.5s-7.2,8.1-10.7,6.8S119,27.8,121,24c3.1-6.2,10.6-13.8,15.1-12.7s0.8,8.5,0.8,8.5
		s0.9,0.1,3.1-1.3c3.1-2.1,7.2-7.8,11.7-7.2c2.1,0.3,4,2.4,1.4,6.5c-0.9,1.3-2.3,2.5-3.4,1.3c-0.7-0.7-0.1-2,0.6-2.9
		c0.6-0.7,1.5-1.2,2.4-1.1c0.3-0.5,0.2-1.2-0.4-1.5c-0.2-0.1-0.5-0.2-0.8-0.1c-1.5,0-5.3,3.6-7.5,7.1c-2,3.3-5,8.8-2,10.1
		c2.8,1.1,8-5.1,10.5-8.4s8-10.7,12.6-11c1,0,2,0.5,2.6,1.3l0.5-0.8h4.6c0,0-8.8,14.6-9.4,15.7c-0.5,0.9-1.2,2.8,0.7,1.7
		S170.3,22.8,170.3,22.7 M167.8,46.3c-3.4-2.4-7.5-3.6-11.7-3.4c-2.3,0.1-4.4,1.2-5.7,3.1c-1.8-3.1-5.3-5-10.7-5
		c-8.8,0.1-17.5,4.2-24.4,4.2c-6.6,0-11.4-4.2-11.3-11.5c0.3-12.9,11.2-24.6,19.4-29.8c4.7-3,8.6-3.9,11.2-3.6
		c1.9,0.2,4.1,2.3,2.7,5.6c-2.1,4.7-5,4.3-4.9,2.1c0.1-1.2,0.7-2.2,1.8-2.9c0.5-0.3,1.1-0.4,1.7-0.4c0.4-0.4,0.7-2.9-2.6-2.1
		S125.9,6.8,122,11s-9.9,12.3-11.4,20.8c-0.7,3.9-0.2,11.1,9.1,11c7.9-0.1,19.5-5.3,30.2-5.2c3.7,0,7.4,1,10.6,2.9
		C163.3,42.1,166.6,44.5,167.8,46.3"/>
	<path class="st10" d="M97.6,59.2c-0.1-2.7,2-4.9,4.7-5c0.1,0,0.1,0,0.2,0c2.7,0,5,2.2,5,4.9v0.1v4.4c2.3-5.4,6.5-9.5,10.9-9.5
		c2.5-0.2,4.7,1.7,4.9,4.2c0,0.2,0,0.4,0,0.7c0.1,2.3-1.6,4.4-3.9,4.8c-7,1.2-11.9,6.6-11.9,16.8V94c0,2.7-2.2,4.9-5,4.9l0,0
		c-2.7,0-4.9-2.1-4.9-4.8c0,0,0,0,0-0.1L97.6,59.2L97.6,59.2z"/>
	<path class="st10" d="M145.5,98.8c-12.4,0-22-9-22-22.2v-0.2c0-12.2,8.7-22.3,20.9-22.3c13.6,0,20.4,11.2,20.4,21.1
		c0.1,2.5-1.9,4.6-4.5,4.7c-0.1,0-0.1,0-0.2,0h-26.8c1.1,7,6,10.8,12.3,10.8c3.7,0,7.3-1.3,10.1-3.7c0.7-0.6,1.6-0.9,2.5-0.9
		c2.1,0,3.9,1.7,3.9,3.8c0,0.1,0,0.1,0,0.2c0,1.1-0.5,2.2-1.3,3C156.7,96.9,151.2,99,145.5,98.8z M155.3,73.4
		c-0.6-6.3-4.4-11.3-10.9-11.3c-6,0-10.2,4.6-11.1,11.3H155.3L155.3,73.4z"/>
	<path class="st10" d="M190.8,98.8c-12.4,0-22-9-22-22.2v-0.2c0-12.2,8.7-22.3,20.9-22.3c13.6,0,20.4,11.2,20.4,21.1
		c0.1,2.5-1.9,4.6-4.5,4.7c-0.1,0-0.1,0-0.2,0h-26.8c1.1,7,6,10.8,12.3,10.8c3.7,0,7.3-1.3,10.1-3.7c0.7-0.6,1.6-0.9,2.5-0.9
		c2.1,0,3.9,1.7,3.9,3.8c0,0.1,0,0.1,0,0.2c0,1.1-0.5,2.2-1.3,3C202,96.9,196.5,99,190.8,98.8z M200.6,73.4
		c-0.6-6.3-4.4-11.3-10.9-11.3c-6,0-10.2,4.6-11.1,11.3H200.6L200.6,73.4z"/>
	<path class="st10" d="M215.4,93.5c-1.2-0.7-1.9-2-1.9-3.4c0-2.2,1.8-4,4-4c0.7,0,1.5,0.2,2.1,0.6c3.6,2.6,8,4,12.4,4.2
		c4.2,0,6.7-1.8,6.7-4.7V86c0-3.3-4.6-4.5-9.6-6c-6.4-1.8-13.5-4.4-13.5-12.7v-0.2c0-8.2,6.8-13.1,15.3-13.1
		c4.7,0.1,9.4,1.3,13.5,3.5c1.4,0.7,2.4,2.1,2.4,3.8c0,2.2-1.8,4-4,4h-0.1c-0.7,0-1.4-0.2-2-0.5c-3.1-1.7-6.6-2.7-10.1-2.9
		c-3.8,0-6,1.8-6,4.2v0.2c0,3.2,4.6,4.5,9.7,6.1c6.3,2,13.4,4.8,13.4,12.6v0.2c0,9.1-7,13.6-16,13.6
		C225.9,98.6,220.2,96.8,215.4,93.5z"/>
	<path class="st10" d="M331.8,40.2c0-2.7,2.1-4.9,4.8-4.9c0,0,0,0,0.1,0c2.7,0,5,2.1,5,4.9l0,0v53.7c0,2.7-2.2,4.9-4.9,4.9
		c-2.7,0-4.9-2.2-4.9-4.9L331.8,40.2L331.8,40.2z"/>
	<path class="st10" d="M256.8,85.5V62.7h-1.7c-2.4,0-4.4-2-4.4-4.4s2-4.4,4.4-4.4h1.7v-7.6c0-2.8,2.3-5.1,5.1-5.1s5.1,2.3,5.1,5.1
		v7.6h8c2.4,0,4.4,2,4.4,4.4s-2,4.4-4.4,4.4h-8v21.2c0,4,2,5.6,5.5,5.6c0.9,0,1.7-0.1,2.5-0.2c2.4,0,4.3,1.9,4.3,4.2
		c0,1.8-1.1,3.3-2.7,4c-2.2,0.8-4.6,1.2-7,1.2C262.1,98.6,256.8,95.3,256.8,85.5z"/>
	<path class="st10" d="M71.3,62.3h-1.8c-2.4,0-4.3-1.9-4.3-4.2l0,0c0-2.4,1.9-4.3,4.3-4.3h1.8v-3.9c0-4.9,1.3-8.6,3.6-11
		s5.7-3.5,10-3.5c1.7,0,3.4,0.1,5.1,0.4c2.3,0.4,3.9,2.6,3.5,4.9c-0.3,2.1-2.1,3.6-4.2,3.5c-0.7-0.1-1.4-0.2-2.1-0.2
		c-3.9,0-5.9,2.1-5.9,6.8v3h7.9c2.3-0.1,4.2,1.8,4.3,4.1V58c0,2.3-1.9,4.2-4.3,4.2l0,0h-7.8v31.5c0,2.8-2.3,5.1-5.1,5.1
		s-5.1-2.3-5.1-5.1L71.3,62.3L71.3,62.3z"/>
	<path class="st10" d="M322.9,58.8c-0.4-2.7-2.9-4.7-5.6-4.3c-2.2,0.3-4,2.1-4.3,4.3c0,6.9,0,21.1,0,21.1c0.1,4.8-3.7,8.7-8.5,8.8
		c-0.1,0-0.3,0-0.4,0c-4.9,0-8.8-3.9-8.9-8.8l0,0V58.8c-0.3-2.7-2.9-4.7-5.6-4.3c-2.3,0.3-4,2.1-4.3,4.3v21.6l0,0
		c0.3,10.2,8.6,18.3,18.8,18.3c3.1,0,6.1-0.8,8.8-2.2v12.3c0,0,0-0.1,0,0c0.1,4.9-3.8,8.9-8.7,9c-4.9,0.1-8.9-3.8-9-8.7
		c0-0.1,0-0.3-0.1-0.4c-0.4-2.7-2.8-4.6-5.5-4.2c-2.3,0.3-4.1,2.2-4.3,4.5c0,0.2,0,0.3,0,0.3l0,0v0.1l0,0
		c0.3,10.1,8.6,18.2,18.7,18.2c10.2,0,18.8-8.1,18.8-18.3C322.9,109.2,322.9,66.1,322.9,58.8z"/>
	<path class="st10" d="M371.1,98.8c-12.4,0-22-9-22-22.2v-0.2c0-12.2,8.7-22.3,20.9-22.3c13.6,0,20.3,11.2,20.3,21.1
		c0.1,2.5-1.9,4.6-4.5,4.7c-0.1,0-0.1,0-0.2,0h-26.8c1.1,7,6,10.8,12.3,10.8c3.7,0,7.3-1.3,10.1-3.7c0.7-0.6,1.6-0.9,2.5-0.9
		c2.1,0,3.9,1.7,3.9,3.8c0,0.1,0,0.1,0,0.2c0,1.1-0.5,2.2-1.3,3C382.2,96.9,376.7,99,371.1,98.8z M380.8,73.4
		c-0.6-6.3-4.4-11.3-10.9-11.3c-6,0-10.2,4.6-11.1,11.3H380.8L380.8,73.4z"/>
	<path class="st10" d="M14.3,66c0,2-1.6,3.7-3.7,3.7S6.9,68.1,6.9,66c0-2,1.6-3.7,3.7-3.7S14.3,63.9,14.3,66L14.3,66z"/>
	<path class="st10" d="M24,3.6c-1,0-1.7-0.8-1.7-1.7s0.8-1.7,1.7-1.7s1.7,0.8,1.7,1.7l0,0C25.8,2.8,25,3.6,24,3.6L24,3.6z"/>
	<circle class="st10" cx="12.3" cy="91.3" r="6.1"/>
	<circle class="st10" cx="46.1" cy="17.1" r="3.1"/>
	<path class="st10" d="M17.3,40.8c1,0,1.7-0.8,1.7-1.7s-0.8-1.7-1.7-1.7s-1.7,0.8-1.7,1.7l0,0C15.6,40,16.3,40.8,17.3,40.8z"/>
	<path class="st10" d="M3.6,17.4c-1.4,0-2.6-1.2-2.6-2.6s1.2-2.6,2.6-2.6s2.6,1.2,2.6,2.6l0,0C6.2,16.2,5.1,17.4,3.6,17.4z"/>
	<path class="st10" d="M23.3,49.7c1.1,0,2-0.9,2-2s-0.9-2-2-2s-2,0.9-2,2S22.2,49.7,23.3,49.7z"/>
	<path class="st10" d="M8.6,13c3,0,5.5-2.5,5.5-5.5S11.6,2,8.6,2S3.1,4.5,3.1,7.5l0,0C3.1,10.6,5.6,13,8.6,13z"/>
	<circle class="st10" cx="35.9" cy="46.6" r="9.8"/>
	<path class="st10" d="M30,8.9c-2.3,0-4.2-1.9-4.2-4.2c0-2.3,1.9-4.2,4.2-4.2s4.2,1.9,4.2,4.2C34.3,7,32.4,8.9,30,8.9L30,8.9z"/>
	<circle class="st10" cx="22.7" cy="42" r="3"/>
	<circle class="st10" cx="8.3" cy="72.2" r="1.6"/>
	<path class="st10" d="M45.4,28.8c0.7,0,1.3-0.6,1.3-1.3c0-0.7-0.6-1.3-1.3-1.3s-1.3,0.6-1.3,1.3l0,0C44.1,28.2,44.7,28.8,45.4,28.8
		z"/>
	<path class="st10" d="M19.8,21.7c0.7,0,1.2-0.6,1.2-1.2c0-0.7-0.6-1.2-1.2-1.2c-0.7,0-1.2,0.5-1.2,1.2
		C18.6,21.2,19.1,21.7,19.8,21.7L19.8,21.7z"/>
	<path class="st10" d="M397.2,91.9c-1.5-1.6-4.1-1.6-5.7-0.1c-0.8,0.8-1.2,1.8-1.2,2.9s0.4,2.1,1.2,2.8c0.7,0.8,1.8,1.2,2.9,1.2
		s2.1-0.5,2.8-1.2C398.8,96,398.8,93.5,397.2,91.9C397.3,91.9,397.2,91.9,397.2,91.9z M396.8,97.2c-0.6,0.6-1.5,1-2.4,1
		s-1.8-0.4-2.5-1c-0.6-0.7-1-1.6-1-2.5s0.4-1.8,1-2.4c0.6-0.7,1.5-1,2.5-1c1.9,0,3.4,1.5,3.4,3.3c0,0,0,0,0,0.1
		C397.8,95.6,397.5,96.5,396.8,97.2L396.8,97.2z"/>
</g>
</svg>
